KA Almouzios Fthora-Regular.ufo
<glyph name="exclam" format="2">
	<advance width="0"/>
	<unicode hex="0021"/>
	<outline>
		<contour>
			<point x="-211" y="255" type="curve"/>
			<point x="-211" y="255" type="line"/>
			<point x="-227" y="260"/>
			<point x="-237" y="270"/>
			<point x="-242" y="283" type="curve"/>
			<point x="-248" y="293"/>
			<point x="-250" y="312"/>
			<point x="-248" y="343" type="curve"/>
			<point x="-247" y="369" type="line"/>
			<point x="-260" y="369" type="line"/>
			<point x="-270" y="369" type="line"/>
			<point x="-271" y="359" type="line"/>
			<point x="-271" y="355"/>
			<point x="-271" y="339"/>
			<point x="-273" y="324" type="curve"/>
			<point x="-274" y="294"/>
			<point x="-274" y="286"/>
			<point x="-278" y="276" type="curve"/>
			<point x="-284" y="267"/>
			<point x="-288" y="264"/>
			<point x="-304" y="264" type="curve"/>
			<point x="-317" y="264"/>
			<point x="-319" y="264"/>
			<point x="-320" y="265" type="curve"/>
			<point x="-320" y="267"/>
			<point x="-319" y="278"/>
			<point x="-316" y="289" type="curve"/>
			<point x="-311" y="315"/>
			<point x="-304" y="348"/>
			<point x="-304" y="357" type="curve"/>
			<point x="-304" y="368"/>
			<point x="-306" y="369"/>
			<point x="-331" y="369" type="curve"/>
			<point x="-353" y="369" type="line"/>
			<point x="-353" y="366" type="line"/>
			<point x="-353" y="359"/>
			<point x="-355" y="357"/>
			<point x="-366" y="358" type="curve"/>
			<point x="-379" y="359"/>
			<point x="-381" y="362"/>
			<point x="-381" y="371" type="curve"/>
			<point x="-381" y="378"/>
			<point x="-379" y="384"/>
			<point x="-376" y="388" type="curve"/>
			<point x="-372" y="391" type="line"/>
			<point x="-265" y="391" type="line"/>
			<point x="-144" y="391"/>
			<point x="-154" y="392"/>
			<point x="-153" y="380" type="curve"/>
			<point x="-152" y="376"/>
			<point x="-153" y="374"/>
			<point x="-155" y="372" type="curve"/>
			<point x="-158" y="369"/>
			<point x="-160" y="369"/>
			<point x="-180" y="368" type="curve"/>
			<point x="-202" y="368" type="line"/>
			<point x="-204" y="354" type="line"/>
			<point x="-205" y="327"/>
			<point x="-201" y="297"/>
			<point x="-191" y="276" type="curve"/>
			<point x="-186" y="264"/>
			<point x="-187" y="260"/>
			<point x="-194" y="256" type="curve"/>
			<point x="-201" y="253"/>
			<point x="-204" y="252"/>
		</contour>
	</outline>
</glyph>
<glyph name="numbersign" format="2">
	<advance width="0"/>
	<unicode hex="0023"/>
	<outline>
		<contour>
			<point x="-299" y="239" type="curve"/>
			<point x="-299" y="239" type="line"/>
			<point x="-309" y="240"/>
			<point x="-317" y="241"/>
			<point x="-319" y="244" type="curve"/>
			<point x="-322" y="246"/>
			<point x="-322" y="264"/>
			<point x="-323" y="313" type="curve"/>
			<point x="-323" y="376"/>
			<point x="-324" y="377"/>
			<point x="-330" y="384" type="curve"/>
			<point x="-336" y="390"/>
			<point x="-336" y="399"/>
			<point x="-332" y="405" type="curve"/>
			<point x="-330" y="407"/>
			<point x="-323" y="407"/>
			<point x="-286" y="407" type="curve"/>
			<point x="-263" y="405"/>
			<point x="-234" y="405"/>
			<point x="-223" y="405" type="curve"/>
			<point x="-206" y="404"/>
			<point x="-202" y="404"/>
			<point x="-196" y="399" type="curve"/>
			<point x="-193" y="396"/>
			<point x="-190" y="390"/>
			<point x="-190" y="386" type="curve"/>
			<point x="-188" y="380"/>
			<point x="-188" y="378"/>
			<point x="-196" y="375" type="curve"/>
			<point x="-202" y="371"/>
			<point x="-208" y="371"/>
			<point x="-239" y="372" type="curve"/>
			<point x="-274" y="373" type="line"/>
			<point x="-273" y="309" type="line"/>
			<point x="-270" y="241"/>
			<point x="-271" y="237"/>
			<point x="-280" y="237" type="curve"/>
			<point x="-283" y="239"/>
			<point x="-291" y="239"/>
		</contour>
	</outline>
</glyph>
<glyph name="dollar" format="2">
	<advance width="0"/>
	<unicode hex="0024"/>
	<outline>
		<contour>
			<point x="-333" y="231" type="line"/>
			<point x="-343" y="240" type="line"/>
			<point x="-354" y="250"/>
			<point x="-355" y="254"/>
			<point x="-350" y="258" type="curve"/>
			<point x="-346" y="260"/>
			<point x="-343" y="261"/>
			<point x="-328" y="262" type="curve"/>
			<point x="-309" y="263" type="line"/>
			<point x="-281" y="334" type="line"/>
			<point x="-265" y="373"/>
			<point x="-252" y="407"/>
			<point x="-250" y="409" type="curve"/>
			<point x="-249" y="412"/>
			<point x="-246" y="413"/>
			<point x="-243" y="413" type="curve"/>
			<point x="-239" y="413"/>
			<point x="-237" y="412"/>
			<point x="-234" y="405" type="curve"/>
			<point x="-231" y="400"/>
			<point x="-224" y="379"/>
			<point x="-216" y="357" type="curve"/>
			<point x="-193" y="284"/>
			<point x="-186" y="265"/>
			<point x="-174" y="245" type="curve"/>
			<point x="-170" y="240"/>
			<point x="-168" y="234"/>
			<point x="-168" y="232" type="curve"/>
			<point x="-169" y="231"/>
			<point x="-184" y="231"/>
			<point x="-252" y="231" type="curve"/>
		</contour>
		<contour>
			<point x="-232" y="273" type="curve"/>
			<point x="-232" y="273" type="line"/>
			<point x="-231" y="274"/>
			<point x="-242" y="332"/>
			<point x="-243" y="333" type="curve"/>
			<point x="-245" y="334"/>
			<point x="-270" y="280"/>
			<point x="-270" y="274" type="curve"/>
			<point x="-270" y="270" type="line"/>
			<point x="-252" y="272" type="line"/>
			<point x="-242" y="272"/>
			<point x="-233" y="273"/>
		</contour>
	</outline>
</glyph>
<glyph name="percent" format="2">
	<advance width="0"/>
	<unicode hex="0025"/>
	<outline>
		<contour>
			<point x="-349" y="232" type="curve"/>
			<point x="-349" y="232" type="line"/>
			<point x="-351" y="234"/>
			<point x="-352" y="237"/>
			<point x="-353" y="240" type="curve"/>
			<point x="-354" y="243"/>
			<point x="-353" y="245"/>
			<point x="-347" y="254" type="curve"/>
			<point x="-338" y="267"/>
			<point x="-329" y="283"/>
			<point x="-329" y="290" type="curve"/>
			<point x="-329" y="293"/>
			<point x="-331" y="305"/>
			<point x="-338" y="335" type="curve"/>
			<point x="-347" y="368"/>
			<point x="-348" y="378"/>
			<point x="-348" y="385" type="curve"/>
			<point x="-348" y="394" type="line"/>
			<point x="-343" y="398" type="line"/>
			<point x="-338" y="404"/>
			<point x="-325" y="410"/>
			<point x="-307" y="413" type="curve"/>
			<point x="-292" y="416"/>
			<point x="-292" y="416"/>
			<point x="-288" y="412" type="curve"/>
			<point x="-286" y="410" type="line"/>
			<point x="-289" y="384" type="line"/>
			<point x="-292" y="366"/>
			<point x="-292" y="359"/>
			<point x="-292" y="356" type="curve"/>
			<point x="-291" y="355"/>
			<point x="-290" y="353"/>
			<point x="-290" y="353" type="curve"/>
			<point x="-290" y="353"/>
			<point x="-269" y="361"/>
			<point x="-245" y="369" type="curve"/>
			<point x="-201" y="384"/>
			<point x="-200" y="384"/>
			<point x="-192" y="384" type="curve"/>
			<point x="-184" y="384"/>
			<point x="-183" y="384"/>
			<point x="-181" y="380" type="curve"/>
			<point x="-179" y="376"/>
			<point x="-176" y="362"/>
			<point x="-177" y="356" type="curve"/>
			<point x="-178" y="352"/>
			<point x="-183" y="345"/>
			<point x="-189" y="342" type="curve"/>
			<point x="-191" y="341"/>
			<point x="-197" y="340"/>
			<point x="-201" y="339" type="curve"/>
			<point x="-213" y="338"/>
			<point x="-282" y="315"/>
			<point x="-285" y="310" type="curve"/>
			<point x="-286" y="310"/>
			<point x="-286" y="309"/>
			<point x="-287" y="308" type="curve"/>
			<point x="-287" y="305"/>
			<point x="-287" y="305"/>
			<point x="-284" y="304" type="curve"/>
			<point x="-276" y="301"/>
			<point x="-251" y="296"/>
			<point x="-222" y="291" type="curve"/>
			<point x="-180" y="284"/>
			<point x="-180" y="283"/>
			<point x="-176" y="279" type="curve"/>
			<point x="-171" y="273"/>
			<point x="-170" y="268"/>
			<point x="-170" y="259" type="curve"/>
			<point x="-170" y="250"/>
			<point x="-170" y="250"/>
			<point x="-174" y="246" type="curve"/>
			<point x="-176" y="243"/>
			<point x="-178" y="243"/>
			<point x="-182" y="243" type="curve"/>
			<point x="-185" y="243"/>
			<point x="-207" y="248"/>
			<point x="-233" y="254" type="curve"/>
			<point x="-257" y="259"/>
			<point x="-278" y="264"/>
			<point x="-278" y="264" type="curve"/>
			<point x="-279" y="264"/>
			<point x="-280" y="262"/>
			<point x="-281" y="259" type="curve"/>
			<point x="-283" y="250"/>
			<point x="-292" y="241"/>
			<point x="-302" y="236" type="curve"/>
			<point x="-314" y="231"/>
			<point x="-323" y="228"/>
			<point x="-335" y="228" type="curve"/>
			<point x="-346" y="228"/>
			<point x="-347" y="229"/>
		</contour>
	</outline>
</glyph>
<glyph name="ampersand" format="2">
	<advance width="0"/>
	<unicode hex="0026"/>
	<outline>
		<contour>
			<point x="-263" y="246" type="curve"/>
			<point x="-263" y="246" type="line"/>
			<point x="-266" y="247"/>
			<point x="-268" y="252"/>
			<point x="-271" y="256" type="curve"/>
			<point x="-275" y="264"/>
			<point x="-284" y="291"/>
			<point x="-285" y="297" type="curve"/>
			<point x="-287" y="303"/>
			<point x="-298" y="316"/>
			<point x="-310" y="325" type="curve"/>
			<point x="-318" y="331"/>
			<point x="-330" y="338"/>
			<point x="-338" y="340" type="curve"/>
			<point x="-344" y="342"/>
			<point x="-345" y="344"/>
			<point x="-343" y="360" type="curve"/>
			<point x="-343" y="379"/>
			<point x="-340" y="386"/>
			<point x="-332" y="395" type="curve"/>
			<point x="-328" y="399"/>
			<point x="-324" y="402"/>
			<point x="-320" y="403" type="curve"/>
			<point x="-316" y="404"/>
			<point x="-315" y="404"/>
			<point x="-309" y="401" type="curve"/>
			<point x="-292" y="392"/>
			<point x="-268" y="359"/>
			<point x="-264" y="339" type="curve"/>
			<point x="-261" y="323"/>
			<point x="-259" y="315"/>
			<point x="-258" y="316" type="curve"/>
			<point x="-258" y="316"/>
			<point x="-257" y="319"/>
			<point x="-256" y="322" type="curve"/>
			<point x="-252" y="335"/>
			<point x="-236" y="362"/>
			<point x="-217" y="387" type="curve"/>
			<point x="-209" y="399" type="line"/>
			<point x="-202" y="398" type="line"/>
			<point x="-192" y="398"/>
			<point x="-189" y="395"/>
			<point x="-182" y="386" type="curve"/>
			<point x="-180" y="381"/>
			<point x="-179" y="379"/>
			<point x="-179" y="375" type="curve"/>
			<point x="-179" y="369"/>
			<point x="-180" y="367"/>
			<point x="-199" y="336" type="curve"/>
			<point x="-215" y="312"/>
			<point x="-222" y="300"/>
			<point x="-226" y="289" type="curve"/>
			<point x="-234" y="270"/>
			<point x="-244" y="251"/>
			<point x="-248" y="246" type="curve"/>
			<point x="-254" y="240"/>
			<point x="-257" y="240"/>
		</contour>
	</outline>
</glyph>
<glyph name="one" format="2">
	<advance width="0"/>
	<unicode hex="0031"/>
	<outline>
		<contour>
			<point x="-1062" y="254" type="curve"/>
			<point x="-1062" y="254" type="line"/>
			<point x="-1078" y="260"/>
			<point x="-1088" y="270"/>
			<point x="-1094" y="283" type="curve"/>
			<point x="-1099" y="293"/>
			<point x="-1101" y="312"/>
			<point x="-1099" y="343" type="curve"/>
			<point x="-1099" y="369" type="line"/>
			<point x="-1110" y="369" type="line"/>
			<point x="-1121" y="369" type="line"/>
			<point x="-1122" y="359" type="line"/>
			<point x="-1122" y="355"/>
			<point x="-1123" y="339"/>
			<point x="-1124" y="323" type="curve"/>
			<point x="-1124" y="294"/>
			<point x="-1125" y="286"/>
			<point x="-1130" y="276" type="curve"/>
			<point x="-1135" y="267"/>
			<point x="-1139" y="265"/>
			<point x="-1155" y="264" type="curve"/>
			<point x="-1168" y="263"/>
			<point x="-1170" y="264"/>
			<point x="-1172" y="265" type="curve"/>
			<point x="-1172" y="267"/>
			<point x="-1170" y="278"/>
			<point x="-1166" y="289" type="curve"/>
			<point x="-1161" y="314"/>
			<point x="-1155" y="348"/>
			<point x="-1155" y="357" type="curve"/>
			<point x="-1155" y="368"/>
			<point x="-1157" y="369"/>
			<point x="-1182" y="369" type="curve"/>
			<point x="-1204" y="369" type="line"/>
			<point x="-1204" y="366" type="line"/>
			<point x="-1204" y="359"/>
			<point x="-1206" y="357"/>
			<point x="-1217" y="358" type="curve"/>
			<point x="-1230" y="359"/>
			<point x="-1233" y="361"/>
			<point x="-1233" y="370" type="curve"/>
			<point x="-1233" y="378"/>
			<point x="-1230" y="384"/>
			<point x="-1226" y="388" type="curve"/>
			<point x="-1223" y="391" type="line"/>
			<point x="-1117" y="391" type="line"/>
			<point x="-996" y="391"/>
			<point x="-1005" y="392"/>
			<point x="-1004" y="381" type="curve"/>
			<point x="-1003" y="376"/>
			<point x="-1004" y="374"/>
			<point x="-1006" y="372" type="curve"/>
			<point x="-1009" y="369"/>
			<point x="-1011" y="369"/>
			<point x="-1031" y="368" type="curve"/>
			<point x="-1053" y="368" type="line"/>
			<point x="-1055" y="354" type="line"/>
			<point x="-1056" y="327"/>
			<point x="-1052" y="298"/>
			<point x="-1043" y="276" type="curve"/>
			<point x="-1037" y="263"/>
			<point x="-1038" y="260"/>
			<point x="-1045" y="256" type="curve"/>
			<point x="-1052" y="253"/>
			<point x="-1055" y="252"/>
		</contour>
	</outline>
</glyph>
<glyph name="two" format="2">
	<advance width="0"/>
	<unicode hex="0032"/>
	<outline>
		<contour>
			<point x="-1094" y="218" type="curve"/>
			<point x="-1094" y="218" type="line"/>
			<point x="-1081" y="222"/>
			<point x="-1072" y="225"/>
			<point x="-1067" y="230" type="curve"/>
			<point x="-1062" y="235"/>
			<point x="-1058" y="244"/>
			<point x="-1056" y="251" type="curve"/>
			<point x="-1054" y="262"/>
			<point x="-1054" y="265"/>
			<point x="-1062" y="284" type="curve"/>
			<point x="-1070" y="301"/>
			<point x="-1070" y="302"/>
			<point x="-1078" y="309" type="curve"/>
			<point x="-1083" y="312"/>
			<point x="-1092" y="320"/>
			<point x="-1098" y="325" type="curve"/>
			<point x="-1105" y="330"/>
			<point x="-1110" y="335"/>
			<point x="-1110" y="336" type="curve"/>
			<point x="-1110" y="337"/>
			<point x="-1098" y="339"/>
			<point x="-1083" y="341" type="curve"/>
			<point x="-1066" y="343"/>
			<point x="-1056" y="353"/>
			<point x="-1051" y="372" type="curve"/>
			<point x="-1047" y="391"/>
			<point x="-1054" y="406"/>
			<point x="-1070" y="414" type="curve"/>
			<point x="-1096" y="427"/>
			<point x="-1123" y="423"/>
			<point x="-1139" y="406" type="curve"/>
			<point x="-1146" y="400"/>
			<point x="-1154" y="387"/>
			<point x="-1157" y="376" type="curve"/>
			<point x="-1158" y="373"/>
			<point x="-1159" y="369"/>
			<point x="-1161" y="369" type="curve"/>
			<point x="-1161" y="368"/>
			<point x="-1165" y="366"/>
			<point x="-1169" y="365" type="curve"/>
			<point x="-1179" y="362"/>
			<point x="-1181" y="360"/>
			<point x="-1181" y="354" type="curve"/>
			<point x="-1181" y="352"/>
			<point x="-1180" y="349"/>
			<point x="-1179" y="347" type="curve"/>
			<point x="-1177" y="343"/>
			<point x="-1170" y="338"/>
			<point x="-1163" y="336" type="curve"/>
			<point x="-1158" y="334"/>
			<point x="-1157" y="333"/>
			<point x="-1158" y="332" type="curve"/>
			<point x="-1159" y="331"/>
			<point x="-1159" y="323"/>
			<point x="-1159" y="305" type="curve"/>
			<point x="-1159" y="283"/>
			<point x="-1159" y="278"/>
			<point x="-1157" y="262" type="curve"/>
			<point x="-1154" y="244"/>
			<point x="-1150" y="235"/>
			<point x="-1144" y="225" type="curve"/>
			<point x="-1137" y="216"/>
			<point x="-1136" y="216"/>
			<point x="-1119" y="216" type="curve"/>
			<point x="-1108" y="216"/>
			<point x="-1103" y="216"/>
		</contour>
		<contour>
			<point x="-1119" y="255" type="curve"/>
			<point x="-1119" y="255" type="line"/>
			<point x="-1121" y="257"/>
			<point x="-1122" y="260"/>
			<point x="-1122" y="262" type="curve"/>
			<point x="-1123" y="269"/>
			<point x="-1123" y="300"/>
			<point x="-1122" y="302" type="curve"/>
			<point x="-1120" y="303"/>
			<point x="-1116" y="300"/>
			<point x="-1110" y="295" type="curve"/>
			<point x="-1101" y="287"/>
			<point x="-1098" y="280"/>
			<point x="-1098" y="267" type="curve"/>
			<point x="-1097" y="258"/>
			<point x="-1097" y="257"/>
			<point x="-1099" y="255" type="curve"/>
			<point x="-1101" y="253"/>
			<point x="-1103" y="253"/>
			<point x="-1109" y="253" type="curve"/>
			<point x="-1117" y="253"/>
			<point x="-1117" y="253"/>
		</contour>
		<contour>
			<point x="-1143" y="365" type="curve"/>
			<point x="-1143" y="365" type="line"/>
			<point x="-1145" y="367"/>
			<point x="-1144" y="371"/>
			<point x="-1141" y="374" type="curve"/>
			<point x="-1136" y="378"/>
			<point x="-1134" y="382"/>
			<point x="-1118" y="387" type="curve"/>
			<point x="-1107" y="390"/>
			<point x="-1103" y="391"/>
			<point x="-1096" y="391" type="curve"/>
			<point x="-1088" y="391"/>
			<point x="-1088" y="391"/>
			<point x="-1085" y="388" type="curve"/>
			<point x="-1081" y="383"/>
			<point x="-1080" y="380"/>
			<point x="-1083" y="377" type="curve"/>
			<point x="-1085" y="372"/>
			<point x="-1094" y="368"/>
			<point x="-1105" y="366" type="curve"/>
			<point x="-1114" y="365"/>
			<point x="-1142" y="364"/>
		</contour>
	</outline>
</glyph>
<glyph name="three" format="2">
	<advance width="0"/>
	<unicode hex="0033"/>
	<outline>
		<contour>
			<point x="-1151" y="239" type="curve"/>
			<point x="-1151" y="239" type="line"/>
			<point x="-1162" y="240"/>
			<point x="-1169" y="241"/>
			<point x="-1171" y="244" type="curve"/>
			<point x="-1173" y="247"/>
			<point x="-1174" y="264"/>
			<point x="-1175" y="313" type="curve"/>
			<point x="-1175" y="376"/>
			<point x="-1176" y="377"/>
			<point x="-1182" y="384" type="curve"/>
			<point x="-1187" y="390"/>
			<point x="-1189" y="398"/>
			<point x="-1184" y="405" type="curve"/>
			<point x="-1182" y="407"/>
			<point x="-1175" y="407"/>
			<point x="-1138" y="407" type="curve"/>
			<point x="-1115" y="405"/>
			<point x="-1086" y="405"/>
			<point x="-1075" y="405" type="curve"/>
			<point x="-1058" y="404"/>
			<point x="-1053" y="404"/>
			<point x="-1048" y="398" type="curve"/>
			<point x="-1045" y="396"/>
			<point x="-1042" y="390"/>
			<point x="-1042" y="386" type="curve"/>
			<point x="-1040" y="380"/>
			<point x="-1040" y="378"/>
			<point x="-1048" y="375" type="curve"/>
			<point x="-1054" y="370"/>
			<point x="-1060" y="370"/>
			<point x="-1091" y="372" type="curve"/>
			<point x="-1126" y="373" type="line"/>
			<point x="-1125" y="309" type="line"/>
			<point x="-1122" y="241"/>
			<point x="-1123" y="238"/>
			<point x="-1133" y="238" type="curve"/>
			<point x="-1135" y="239"/>
			<point x="-1143" y="239"/>
		</contour>
	</outline>
</glyph>
<glyph name="four" format="2">
	<advance width="0"/>
	<unicode hex="0034"/>
	<outline>
		<contour>
			<point x="-1186" y="231" type="line"/>
			<point x="-1196" y="240" type="line"/>
			<point x="-1207" y="250"/>
			<point x="-1208" y="253"/>
			<point x="-1202" y="258" type="curve"/>
			<point x="-1199" y="260"/>
			<point x="-1196" y="261"/>
			<point x="-1180" y="262" type="curve"/>
			<point x="-1162" y="262" type="line"/>
			<point x="-1133" y="334" type="line"/>
			<point x="-1118" y="373"/>
			<point x="-1104" y="407"/>
			<point x="-1103" y="409" type="curve"/>
			<point x="-1101" y="412"/>
			<point x="-1099" y="413"/>
			<point x="-1096" y="413" type="curve"/>
			<point x="-1091" y="413"/>
			<point x="-1090" y="412"/>
			<point x="-1086" y="405" type="curve"/>
			<point x="-1084" y="400"/>
			<point x="-1076" y="379"/>
			<point x="-1069" y="358" type="curve"/>
			<point x="-1045" y="284"/>
			<point x="-1038" y="266"/>
			<point x="-1026" y="245" type="curve"/>
			<point x="-1023" y="240"/>
			<point x="-1021" y="234"/>
			<point x="-1021" y="233" type="curve"/>
			<point x="-1021" y="231"/>
			<point x="-1036" y="231"/>
			<point x="-1104" y="231" type="curve"/>
		</contour>
		<contour>
			<point x="-1085" y="273" type="curve"/>
			<point x="-1085" y="273" type="line"/>
			<point x="-1084" y="274"/>
			<point x="-1094" y="332"/>
			<point x="-1096" y="333" type="curve"/>
			<point x="-1098" y="333"/>
			<point x="-1123" y="280"/>
			<point x="-1123" y="275" type="curve"/>
			<point x="-1123" y="270" type="line"/>
			<point x="-1104" y="272" type="line"/>
			<point x="-1094" y="272"/>
			<point x="-1085" y="273"/>
		</contour>
	</outline>
</glyph>
<glyph name="five" format="2">
	<advance width="0"/>
	<unicode hex="0035"/>
	<outline>
		<contour>
			<point x="-1201" y="232" type="curve"/>
			<point x="-1201" y="232" type="line"/>
			<point x="-1203" y="234"/>
			<point x="-1205" y="237"/>
			<point x="-1205" y="239" type="curve"/>
			<point x="-1206" y="243"/>
			<point x="-1205" y="245"/>
			<point x="-1198" y="254" type="curve"/>
			<point x="-1189" y="267"/>
			<point x="-1182" y="283"/>
			<point x="-1181" y="290" type="curve"/>
			<point x="-1180" y="293"/>
			<point x="-1183" y="306"/>
			<point x="-1190" y="336" type="curve"/>
			<point x="-1198" y="368"/>
			<point x="-1200" y="378"/>
			<point x="-1200" y="385" type="curve"/>
			<point x="-1200" y="394" type="line"/>
			<point x="-1195" y="399" type="line"/>
			<point x="-1189" y="404"/>
			<point x="-1177" y="410"/>
			<point x="-1159" y="414" type="curve"/>
			<point x="-1144" y="416"/>
			<point x="-1144" y="416"/>
			<point x="-1140" y="413" type="curve"/>
			<point x="-1138" y="410" type="line"/>
			<point x="-1141" y="385" type="line"/>
			<point x="-1144" y="366"/>
			<point x="-1144" y="359"/>
			<point x="-1144" y="356" type="curve"/>
			<point x="-1143" y="355"/>
			<point x="-1142" y="354"/>
			<point x="-1142" y="354" type="curve"/>
			<point x="-1142" y="354"/>
			<point x="-1121" y="361"/>
			<point x="-1097" y="369" type="curve"/>
			<point x="-1053" y="385"/>
			<point x="-1052" y="385"/>
			<point x="-1044" y="385" type="curve"/>
			<point x="-1036" y="384"/>
			<point x="-1035" y="384"/>
			<point x="-1033" y="381" type="curve"/>
			<point x="-1031" y="376"/>
			<point x="-1028" y="362"/>
			<point x="-1029" y="356" type="curve"/>
			<point x="-1030" y="352"/>
			<point x="-1035" y="345"/>
			<point x="-1041" y="343" type="curve"/>
			<point x="-1043" y="341"/>
			<point x="-1049" y="340"/>
			<point x="-1053" y="339" type="curve"/>
			<point x="-1066" y="338"/>
			<point x="-1134" y="314"/>
			<point x="-1137" y="310" type="curve"/>
			<point x="-1138" y="310"/>
			<point x="-1138" y="309"/>
			<point x="-1138" y="308" type="curve"/>
			<point x="-1139" y="305"/>
			<point x="-1138" y="305"/>
			<point x="-1136" y="304" type="curve"/>
			<point x="-1128" y="301"/>
			<point x="-1104" y="296"/>
			<point x="-1075" y="290" type="curve"/>
			<point x="-1032" y="284"/>
			<point x="-1031" y="283"/>
			<point x="-1028" y="279" type="curve"/>
			<point x="-1023" y="272"/>
			<point x="-1022" y="268"/>
			<point x="-1022" y="259" type="curve"/>
			<point x="-1022" y="250"/>
			<point x="-1022" y="250"/>
			<point x="-1026" y="247" type="curve"/>
			<point x="-1029" y="243"/>
			<point x="-1030" y="243"/>
			<point x="-1034" y="243" type="curve"/>
			<point x="-1037" y="243"/>
			<point x="-1059" y="248"/>
			<point x="-1085" y="254" type="curve"/>
			<point x="-1109" y="259"/>
			<point x="-1130" y="265"/>
			<point x="-1131" y="265" type="curve"/>
			<point x="-1131" y="265"/>
			<point x="-1132" y="262"/>
			<point x="-1133" y="259" type="curve"/>
			<point x="-1135" y="250"/>
			<point x="-1144" y="241"/>
			<point x="-1154" y="236" type="curve"/>
			<point x="-1165" y="231"/>
			<point x="-1174" y="229"/>
			<point x="-1187" y="229" type="curve"/>
			<point x="-1198" y="229"/>
			<point x="-1198" y="229"/>
		</contour>
	</outline>
</glyph>
<glyph name="six" format="2">
	<advance width="0"/>
	<unicode hex="0036"/>
	<outline>
		<contour>
			<point x="-1184" y="235" type="curve"/>
			<point x="-1184" y="235" type="line"/>
			<point x="-1193" y="248"/>
			<point x="-1194" y="253"/>
			<point x="-1189" y="267" type="curve"/>
			<point x="-1184" y="286"/>
			<point x="-1166" y="314"/>
			<point x="-1138" y="348" type="curve"/>
			<point x="-1127" y="360" type="line"/>
			<point x="-1138" y="361" type="line"/>
			<point x="-1190" y="366"/>
			<point x="-1213" y="371"/>
			<point x="-1218" y="380" type="curve"/>
			<point x="-1219" y="382"/>
			<point x="-1219" y="383"/>
			<point x="-1217" y="385" type="curve"/>
			<point x="-1215" y="388"/>
			<point x="-1207" y="391"/>
			<point x="-1196" y="394" type="curve"/>
			<point x="-1191" y="395"/>
			<point x="-1189" y="397"/>
			<point x="-1185" y="402" type="curve"/>
			<point x="-1180" y="409"/>
			<point x="-1171" y="415"/>
			<point x="-1167" y="415" type="curve"/>
			<point x="-1165" y="415"/>
			<point x="-1164" y="414"/>
			<point x="-1162" y="410" type="curve"/>
			<point x="-1160" y="408"/>
			<point x="-1158" y="404"/>
			<point x="-1155" y="403" type="curve"/>
			<point x="-1148" y="398"/>
			<point x="-1131" y="397"/>
			<point x="-1115" y="400" type="curve"/>
			<point x="-1096" y="404"/>
			<point x="-1053" y="405"/>
			<point x="-1039" y="402" type="curve"/>
			<point x="-1033" y="400"/>
			<point x="-1030" y="399"/>
			<point x="-1026" y="395" type="curve"/>
			<point x="-1020" y="389"/>
			<point x="-1020" y="385"/>
			<point x="-1024" y="376" type="curve"/>
			<point x="-1029" y="367"/>
			<point x="-1051" y="345"/>
			<point x="-1071" y="330" type="curve"/>
			<point x="-1095" y="312"/>
			<point x="-1124" y="283"/>
			<point x="-1124" y="278" type="curve"/>
			<point x="-1124" y="277"/>
			<point x="-1120" y="279"/>
			<point x="-1116" y="281" type="curve"/>
			<point x="-1100" y="288"/>
			<point x="-1082" y="290"/>
			<point x="-1067" y="286" type="curve"/>
			<point x="-1053" y="283"/>
			<point x="-1038" y="272"/>
			<point x="-1025" y="258" type="curve"/>
			<point x="-1019" y="251"/>
			<point x="-1009" y="237"/>
			<point x="-1009" y="236" type="curve"/>
			<point x="-1009" y="235"/>
			<point x="-1011" y="234"/>
			<point x="-1015" y="232" type="curve"/>
			<point x="-1022" y="229"/>
			<point x="-1027" y="229"/>
			<point x="-1054" y="231" type="curve"/>
			<point x="-1072" y="232" type="line"/>
			<point x="-1083" y="238" type="line"/>
			<point x="-1109" y="252"/>
			<point x="-1111" y="252"/>
			<point x="-1148" y="239" type="curve"/>
			<point x="-1164" y="234"/>
			<point x="-1177" y="230"/>
			<point x="-1178" y="230" type="curve"/>
			<point x="-1178" y="230"/>
			<point x="-1181" y="232"/>
		</contour>
	</outline>
</glyph>
<glyph name="seven" format="2">
	<advance width="0"/>
	<unicode hex="0037"/>
	<outline>
		<contour>
			<point x="-1115" y="245" type="curve"/>
			<point x="-1115" y="245" type="line"/>
			<point x="-1118" y="247"/>
			<point x="-1121" y="252"/>
			<point x="-1123" y="256" type="curve"/>
			<point x="-1127" y="263"/>
			<point x="-1136" y="291"/>
			<point x="-1137" y="298" type="curve"/>
			<point x="-1138" y="303"/>
			<point x="-1150" y="316"/>
			<point x="-1162" y="325" type="curve"/>
			<point x="-1170" y="331"/>
			<point x="-1182" y="338"/>
			<point x="-1190" y="340" type="curve"/>
			<point x="-1196" y="342"/>
			<point x="-1197" y="345"/>
			<point x="-1196" y="360" type="curve"/>
			<point x="-1195" y="379"/>
			<point x="-1192" y="387"/>
			<point x="-1184" y="395" type="curve"/>
			<point x="-1180" y="399"/>
			<point x="-1176" y="402"/>
			<point x="-1172" y="403" type="curve"/>
			<point x="-1168" y="404"/>
			<point x="-1167" y="404"/>
			<point x="-1161" y="401" type="curve"/>
			<point x="-1143" y="392"/>
			<point x="-1120" y="359"/>
			<point x="-1116" y="338" type="curve"/>
			<point x="-1113" y="323"/>
			<point x="-1111" y="314"/>
			<point x="-1110" y="316" type="curve"/>
			<point x="-1110" y="316"/>
			<point x="-1109" y="319"/>
			<point x="-1108" y="322" type="curve"/>
			<point x="-1104" y="335"/>
			<point x="-1088" y="363"/>
			<point x="-1069" y="387" type="curve"/>
			<point x="-1061" y="398" type="line"/>
			<point x="-1054" y="398" type="line"/>
			<point x="-1044" y="398"/>
			<point x="-1040" y="395"/>
			<point x="-1035" y="386" type="curve"/>
			<point x="-1031" y="381"/>
			<point x="-1031" y="379"/>
			<point x="-1031" y="374" type="curve"/>
			<point x="-1031" y="369"/>
			<point x="-1031" y="367"/>
			<point x="-1051" y="336" type="curve"/>
			<point x="-1067" y="312"/>
			<point x="-1073" y="300"/>
			<point x="-1078" y="289" type="curve"/>
			<point x="-1086" y="270"/>
			<point x="-1096" y="251"/>
			<point x="-1100" y="245" type="curve"/>
			<point x="-1105" y="240"/>
			<point x="-1109" y="240"/>
		</contour>
	</outline>
</glyph>
<glyph name="less" format="2">
	<advance width="0"/>
	<unicode hex="003C"/>
	<outline>
		<contour>
			<point x="-396" y="-382" type="curve"/>
			<point x="-396" y="-382" type="line"/>
			<point x="-397" y="-381"/>
			<point x="-398" y="-374"/>
			<point x="-398" y="-360" type="curve"/>
			<point x="-398" y="-341" type="line"/>
			<point x="-420" y="-341" type="line"/>
			<point x="-438" y="-341"/>
			<point x="-443" y="-340"/>
			<point x="-443" y="-339" type="curve"/>
			<point x="-444" y="-337"/>
			<point x="-442" y="-332"/>
			<point x="-439" y="-326" type="curve"/>
			<point x="-434" y="-317" type="line"/>
			<point x="-414" y="-316" type="line"/>
			<point x="-394" y="-316" type="line"/>
			<point x="-394" y="-309" type="line"/>
			<point x="-394" y="-306"/>
			<point x="-395" y="-299"/>
			<point x="-395" y="-295" type="curve"/>
			<point x="-396" y="-287"/>
			<point x="-396" y="-287"/>
			<point x="-403" y="-285" type="curve"/>
			<point x="-421" y="-281"/>
			<point x="-434" y="-271"/>
			<point x="-441" y="-257" type="curve"/>
			<point x="-445" y="-248"/>
			<point x="-445" y="-246"/>
			<point x="-445" y="-233" type="curve"/>
			<point x="-445" y="-221"/>
			<point x="-445" y="-218"/>
			<point x="-441" y="-211" type="curve"/>
			<point x="-436" y="-200"/>
			<point x="-426" y="-192"/>
			<point x="-408" y="-183" type="curve"/>
			<point x="-394" y="-176" type="line"/>
			<point x="-374" y="-176" type="line"/>
			<point x="-364" y="-176"/>
			<point x="-352" y="-177"/>
			<point x="-348" y="-178" type="curve"/>
			<point x="-325" y="-185"/>
			<point x="-305" y="-227"/>
			<point x="-315" y="-249" type="curve"/>
			<point x="-320" y="-259"/>
			<point x="-335" y="-271"/>
			<point x="-351" y="-279" type="curve"/>
			<point x="-365" y="-287" type="line"/>
			<point x="-365" y="-301" type="line"/>
			<point x="-365" y="-315" type="line"/>
			<point x="-343" y="-315" type="line"/>
			<point x="-331" y="-314"/>
			<point x="-321" y="-315"/>
			<point x="-320" y="-315" type="curve"/>
			<point x="-318" y="-317"/>
			<point x="-323" y="-329"/>
			<point x="-328" y="-336" type="curve"/>
			<point x="-331" y="-341" type="line"/>
			<point x="-349" y="-341" type="line"/>
			<point x="-367" y="-341" type="line"/>
			<point x="-367" y="-359" type="line"/>
			<point x="-367" y="-377"/>
			<point x="-367" y="-378"/>
			<point x="-371" y="-381" type="curve"/>
			<point x="-374" y="-383"/>
			<point x="-377" y="-384"/>
			<point x="-384" y="-384" type="curve"/>
			<point x="-390" y="-384"/>
			<point x="-395" y="-383"/>
		</contour>
		<contour>
			<point x="-371" y="-256" type="curve"/>
			<point x="-371" y="-256" type="line"/>
			<point x="-363" y="-249"/>
			<point x="-354" y="-228"/>
			<point x="-354" y="-218" type="curve"/>
			<point x="-354" y="-212"/>
			<point x="-361" y="-205"/>
			<point x="-368" y="-203" type="curve"/>
			<point x="-374" y="-202"/>
			<point x="-375" y="-202"/>
			<point x="-383" y="-206" type="curve"/>
			<point x="-387" y="-208"/>
			<point x="-392" y="-213"/>
			<point x="-394" y="-215" type="curve"/>
			<point x="-401" y="-225"/>
			<point x="-400" y="-245"/>
			<point x="-393" y="-257" type="curve"/>
			<point x="-390" y="-262"/>
			<point x="-389" y="-262"/>
			<point x="-383" y="-261" type="curve"/>
			<point x="-378" y="-261"/>
			<point x="-374" y="-259"/>
		</contour>
	</outline>
</glyph>
<glyph name="greater" format="2">
	<advance width="0"/>
	<unicode hex="003E"/>
	<outline>
		<contour>
			<point x="-396" y="-178" type="curve"/>
			<point x="-396" y="-178" type="line"/>
			<point x="-395" y="-177"/>
			<point x="-390" y="-176"/>
			<point x="-384" y="-176" type="curve"/>
			<point x="-377" y="-176"/>
			<point x="-374" y="-177"/>
			<point x="-371" y="-179" type="curve"/>
			<point x="-367" y="-182"/>
			<point x="-367" y="-183"/>
			<point x="-367" y="-201" type="curve"/>
			<point x="-367" y="-219" type="line"/>
			<point x="-349" y="-219" type="line"/>
			<point x="-331" y="-219" type="line"/>
			<point x="-328" y="-224" type="line"/>
			<point x="-323" y="-231"/>
			<point x="-318" y="-243"/>
			<point x="-320" y="-245" type="curve"/>
			<point x="-321" y="-245"/>
			<point x="-331" y="-246"/>
			<point x="-343" y="-245" type="curve"/>
			<point x="-365" y="-245" type="line"/>
			<point x="-365" y="-259" type="line"/>
			<point x="-365" y="-273" type="line"/>
			<point x="-351" y="-281" type="line"/>
			<point x="-335" y="-289"/>
			<point x="-320" y="-301"/>
			<point x="-315" y="-311" type="curve"/>
			<point x="-305" y="-333"/>
			<point x="-325" y="-375"/>
			<point x="-348" y="-382" type="curve"/>
			<point x="-352" y="-383"/>
			<point x="-364" y="-384"/>
			<point x="-374" y="-384" type="curve"/>
			<point x="-394" y="-384" type="line"/>
			<point x="-408" y="-377" type="line"/>
			<point x="-426" y="-368"/>
			<point x="-436" y="-360"/>
			<point x="-441" y="-349" type="curve"/>
			<point x="-445" y="-342"/>
			<point x="-445" y="-339"/>
			<point x="-445" y="-327" type="curve"/>
			<point x="-445" y="-314"/>
			<point x="-445" y="-312"/>
			<point x="-441" y="-303" type="curve"/>
			<point x="-434" y="-289"/>
			<point x="-421" y="-279"/>
			<point x="-403" y="-275" type="curve"/>
			<point x="-396" y="-273"/>
			<point x="-396" y="-273"/>
			<point x="-395" y="-265" type="curve"/>
			<point x="-395" y="-261"/>
			<point x="-394" y="-254"/>
			<point x="-394" y="-251" type="curve"/>
			<point x="-394" y="-244" type="line"/>
			<point x="-414" y="-244" type="line"/>
			<point x="-434" y="-243" type="line"/>
			<point x="-439" y="-234" type="line"/>
			<point x="-442" y="-228"/>
			<point x="-444" y="-223"/>
			<point x="-443" y="-221" type="curve"/>
			<point x="-443" y="-220"/>
			<point x="-438" y="-219"/>
			<point x="-420" y="-219" type="curve"/>
			<point x="-398" y="-219" type="line"/>
			<point x="-398" y="-200" type="line"/>
			<point x="-398" y="-186"/>
			<point x="-397" y="-179"/>
		</contour>
		<contour>
			<point x="-371" y="-304" type="curve"/>
			<point x="-371" y="-304" type="line"/>
			<point x="-374" y="-301"/>
			<point x="-378" y="-299"/>
			<point x="-383" y="-299" type="curve"/>
			<point x="-389" y="-298"/>
			<point x="-390" y="-298"/>
			<point x="-393" y="-303" type="curve"/>
			<point x="-400" y="-315"/>
			<point x="-401" y="-335"/>
			<point x="-394" y="-345" type="curve"/>
			<point x="-392" y="-347"/>
			<point x="-387" y="-352"/>
			<point x="-383" y="-354" type="curve"/>
			<point x="-375" y="-358"/>
			<point x="-374" y="-358"/>
			<point x="-368" y="-357" type="curve"/>
			<point x="-361" y="-355"/>
			<point x="-354" y="-348"/>
			<point x="-354" y="-342" type="curve"/>
			<point x="-354" y="-332"/>
			<point x="-363" y="-311"/>
		</contour>
	</outline>
</glyph>
<glyph name="at" format="2">
	<advance width="0"/>
	<unicode hex="0040"/>
	<outline>
		<contour>
			<point x="-243" y="219" type="curve"/>
			<point x="-243" y="219" type="line"/>
			<point x="-229" y="222"/>
			<point x="-221" y="225"/>
			<point x="-216" y="230" type="curve"/>
			<point x="-211" y="235"/>
			<point x="-206" y="244"/>
			<point x="-204" y="252" type="curve"/>
			<point x="-202" y="262"/>
			<point x="-203" y="265"/>
			<point x="-211" y="284" type="curve"/>
			<point x="-219" y="301"/>
			<point x="-219" y="302"/>
			<point x="-227" y="309" type="curve"/>
			<point x="-231" y="312"/>
			<point x="-241" y="321"/>
			<point x="-246" y="326" type="curve"/>
			<point x="-254" y="330"/>
			<point x="-259" y="335"/>
			<point x="-259" y="335" type="curve"/>
			<point x="-259" y="337"/>
			<point x="-246" y="339"/>
			<point x="-231" y="341" type="curve"/>
			<point x="-214" y="344"/>
			<point x="-204" y="353"/>
			<point x="-199" y="372" type="curve"/>
			<point x="-195" y="391"/>
			<point x="-202" y="406"/>
			<point x="-219" y="414" type="curve"/>
			<point x="-244" y="427"/>
			<point x="-271" y="423"/>
			<point x="-288" y="406" type="curve"/>
			<point x="-295" y="400"/>
			<point x="-302" y="386"/>
			<point x="-306" y="377" type="curve"/>
			<point x="-306" y="373"/>
			<point x="-308" y="369"/>
			<point x="-309" y="368" type="curve"/>
			<point x="-309" y="368"/>
			<point x="-313" y="366"/>
			<point x="-318" y="365" type="curve"/>
			<point x="-327" y="362"/>
			<point x="-329" y="360"/>
			<point x="-329" y="354" type="curve"/>
			<point x="-329" y="352"/>
			<point x="-329" y="349"/>
			<point x="-328" y="347" type="curve"/>
			<point x="-325" y="344"/>
			<point x="-318" y="338"/>
			<point x="-311" y="336" type="curve"/>
			<point x="-306" y="335"/>
			<point x="-306" y="333"/>
			<point x="-306" y="332" type="curve"/>
			<point x="-307" y="331"/>
			<point x="-308" y="323"/>
			<point x="-308" y="305" type="curve"/>
			<point x="-308" y="283"/>
			<point x="-308" y="278"/>
			<point x="-306" y="262" type="curve"/>
			<point x="-302" y="244"/>
			<point x="-299" y="235"/>
			<point x="-292" y="225" type="curve"/>
			<point x="-286" y="216"/>
			<point x="-284" y="216"/>
			<point x="-268" y="216" type="curve"/>
			<point x="-257" y="216"/>
			<point x="-252" y="216"/>
		</contour>
		<contour>
			<point x="-268" y="255" type="curve"/>
			<point x="-268" y="255" type="line"/>
			<point x="-269" y="257"/>
			<point x="-270" y="261"/>
			<point x="-270" y="262" type="curve"/>
			<point x="-272" y="269"/>
			<point x="-272" y="300"/>
			<point x="-270" y="302" type="curve"/>
			<point x="-269" y="303"/>
			<point x="-264" y="300"/>
			<point x="-258" y="295" type="curve"/>
			<point x="-250" y="287"/>
			<point x="-246" y="280"/>
			<point x="-246" y="267" type="curve"/>
			<point x="-245" y="258"/>
			<point x="-245" y="257"/>
			<point x="-248" y="255" type="curve"/>
			<point x="-250" y="252"/>
			<point x="-251" y="252"/>
			<point x="-258" y="252" type="curve"/>
			<point x="-265" y="252"/>
			<point x="-266" y="252"/>
		</contour>
		<contour>
			<point x="-292" y="365" type="curve"/>
			<point x="-292" y="365" type="line"/>
			<point x="-294" y="367"/>
			<point x="-292" y="371"/>
			<point x="-289" y="374" type="curve"/>
			<point x="-285" y="377"/>
			<point x="-282" y="382"/>
			<point x="-267" y="387" type="curve"/>
			<point x="-255" y="391"/>
			<point x="-252" y="391"/>
			<point x="-245" y="391" type="curve"/>
			<point x="-237" y="391"/>
			<point x="-237" y="391"/>
			<point x="-233" y="388" type="curve"/>
			<point x="-229" y="383"/>
			<point x="-228" y="380"/>
			<point x="-231" y="377" type="curve"/>
			<point x="-233" y="372"/>
			<point x="-242" y="368"/>
			<point x="-253" y="366" type="curve"/>
			<point x="-262" y="365"/>
			<point x="-291" y="364"/>
		</contour>
	</outline>
</glyph>
<glyph name="asciicircum" format="2">
	<advance width="0"/>
	<unicode hex="005E"/>
	<outline>
		<contour>
			<point x="-332" y="235" type="curve"/>
			<point x="-332" y="235" type="line"/>
			<point x="-341" y="248"/>
			<point x="-342" y="254"/>
			<point x="-338" y="267" type="curve"/>
			<point x="-332" y="287"/>
			<point x="-314" y="314"/>
			<point x="-286" y="348" type="curve"/>
			<point x="-275" y="361" type="line"/>
			<point x="-286" y="361" type="line"/>
			<point x="-338" y="366"/>
			<point x="-361" y="371"/>
			<point x="-366" y="380" type="curve"/>
			<point x="-367" y="382"/>
			<point x="-367" y="383"/>
			<point x="-365" y="385" type="curve"/>
			<point x="-363" y="388"/>
			<point x="-355" y="391"/>
			<point x="-344" y="394" type="curve"/>
			<point x="-338" y="395"/>
			<point x="-338" y="397"/>
			<point x="-333" y="403" type="curve"/>
			<point x="-328" y="409"/>
			<point x="-320" y="415"/>
			<point x="-315" y="415" type="curve"/>
			<point x="-314" y="415"/>
			<point x="-311" y="414"/>
			<point x="-310" y="410" type="curve"/>
			<point x="-308" y="408"/>
			<point x="-306" y="404"/>
			<point x="-303" y="403" type="curve"/>
			<point x="-296" y="398"/>
			<point x="-278" y="397"/>
			<point x="-264" y="400" type="curve"/>
			<point x="-245" y="404"/>
			<point x="-201" y="405"/>
			<point x="-187" y="402" type="curve"/>
			<point x="-180" y="400"/>
			<point x="-178" y="399"/>
			<point x="-174" y="395" type="curve"/>
			<point x="-168" y="389"/>
			<point x="-168" y="385"/>
			<point x="-172" y="376" type="curve"/>
			<point x="-177" y="367"/>
			<point x="-199" y="345"/>
			<point x="-219" y="329" type="curve"/>
			<point x="-243" y="311"/>
			<point x="-272" y="283"/>
			<point x="-272" y="278" type="curve"/>
			<point x="-272" y="278"/>
			<point x="-269" y="278"/>
			<point x="-264" y="281" type="curve"/>
			<point x="-248" y="288"/>
			<point x="-230" y="290"/>
			<point x="-215" y="287" type="curve"/>
			<point x="-201" y="283"/>
			<point x="-185" y="272"/>
			<point x="-173" y="258" type="curve"/>
			<point x="-167" y="251"/>
			<point x="-157" y="237"/>
			<point x="-157" y="236" type="curve"/>
			<point x="-157" y="236"/>
			<point x="-159" y="234"/>
			<point x="-162" y="232" type="curve"/>
			<point x="-170" y="229"/>
			<point x="-175" y="229"/>
			<point x="-202" y="231" type="curve"/>
			<point x="-220" y="232" type="line"/>
			<point x="-231" y="238" type="line"/>
			<point x="-257" y="252"/>
			<point x="-259" y="252"/>
			<point x="-296" y="239" type="curve"/>
			<point x="-311" y="234"/>
			<point x="-325" y="230"/>
			<point x="-326" y="230" type="curve"/>
			<point x="-326" y="230"/>
			<point x="-329" y="232"/>
		</contour>
	</outline>
</glyph>
<glyph name="a" format="2">
	<advance width="0"/>
	<unicode hex="0061"/>
	<outline>
		<contour>
			<point x="-686" y="498" type="curve"/>
			<point x="-686" y="498" type="line"/>
			<point x="-708" y="505"/>
			<point x="-721" y="514"/>
			<point x="-729" y="530" type="curve"/>
			<point x="-733" y="537"/>
			<point x="-737" y="567"/>
			<point x="-735" y="579" type="curve"/>
			<point x="-735" y="586" type="line"/>
			<point x="-763" y="589" type="line"/>
			<point x="-807" y="595"/>
			<point x="-838" y="593"/>
			<point x="-855" y="586" type="curve"/>
			<point x="-864" y="582"/>
			<point x="-866" y="577"/>
			<point x="-863" y="568" type="curve"/>
			<point x="-862" y="562"/>
			<point x="-862" y="560"/>
			<point x="-863" y="558" type="curve"/>
			<point x="-867" y="554"/>
			<point x="-912" y="549"/>
			<point x="-921" y="552" type="curve"/>
			<point x="-933" y="556"/>
			<point x="-945" y="576"/>
			<point x="-942" y="587" type="curve"/>
			<point x="-940" y="596"/>
			<point x="-919" y="606"/>
			<point x="-888" y="611" type="curve"/>
			<point x="-865" y="616"/>
			<point x="-811" y="617"/>
			<point x="-788" y="613" type="curve"/>
			<point x="-779" y="612"/>
			<point x="-760" y="610"/>
			<point x="-746" y="609" type="curve"/>
			<point x="-721" y="608" type="line"/>
			<point x="-712" y="621" type="line"/>
			<point x="-692" y="647"/>
			<point x="-668" y="663"/>
			<point x="-648" y="665" type="curve"/>
			<point x="-636" y="666"/>
			<point x="-619" y="663"/>
			<point x="-609" y="659" type="curve"/>
			<point x="-599" y="655"/>
			<point x="-587" y="643"/>
			<point x="-582" y="633" type="curve"/>
			<point x="-579" y="626"/>
			<point x="-578" y="621"/>
			<point x="-578" y="611" type="curve"/>
			<point x="-578" y="603"/>
			<point x="-579" y="595"/>
			<point x="-580" y="593" type="curve"/>
			<point x="-582" y="587"/>
			<point x="-574" y="584"/>
			<point x="-522" y="575" type="curve"/>
			<point x="-490" y="570"/>
			<point x="-472" y="573"/>
			<point x="-453" y="585" type="curve"/>
			<point x="-445" y="591" type="line"/>
			<point x="-412" y="594" type="line"/>
			<point x="-382" y="596"/>
			<point x="-378" y="596"/>
			<point x="-375" y="594" type="curve"/>
			<point x="-371" y="591"/>
			<point x="-368" y="583"/>
			<point x="-368" y="577" type="curve"/>
			<point x="-368" y="570"/>
			<point x="-378" y="562"/>
			<point x="-394" y="556" type="curve"/>
			<point x="-406" y="551" type="line"/>
			<point x="-485" y="551" type="line"/>
			<point x="-534" y="551"/>
			<point x="-567" y="552"/>
			<point x="-574" y="553" type="curve"/>
			<point x="-584" y="555" type="line"/>
			<point x="-591" y="544" type="line"/>
			<point x="-603" y="526"/>
			<point x="-620" y="511"/>
			<point x="-635" y="503" type="curve"/>
			<point x="-647" y="497"/>
			<point x="-661" y="493"/>
			<point x="-670" y="494" type="curve"/>
			<point x="-672" y="494"/>
			<point x="-679" y="495"/>
		</contour>
		<contour>
			<point x="-657" y="540" type="curve"/>
			<point x="-657" y="540" type="line"/>
			<point x="-654" y="541"/>
			<point x="-648" y="545"/>
			<point x="-644" y="549" type="curve"/>
			<point x="-637" y="558"/>
			<point x="-635" y="564"/>
			<point x="-641" y="566" type="curve"/>
			<point x="-652" y="568"/>
			<point x="-685" y="573"/>
			<point x="-687" y="572" type="curve"/>
			<point x="-689" y="571"/>
			<point x="-688" y="553"/>
			<point x="-686" y="548" type="curve"/>
			<point x="-684" y="543"/>
			<point x="-673" y="538"/>
			<point x="-666" y="537" type="curve"/>
			<point x="-664" y="537"/>
			<point x="-659" y="538"/>
		</contour>
		<contour>
			<point x="-626" y="607" type="curve"/>
			<point x="-626" y="607" type="line"/>
			<point x="-627" y="618"/>
			<point x="-631" y="623"/>
			<point x="-641" y="628" type="curve"/>
			<point x="-649" y="632"/>
			<point x="-661" y="632"/>
			<point x="-668" y="628" type="curve"/>
			<point x="-672" y="625"/>
			<point x="-677" y="615"/>
			<point x="-679" y="606" type="curve"/>
			<point x="-680" y="601" type="line"/>
			<point x="-665" y="600" type="line"/>
			<point x="-657" y="600"/>
			<point x="-647" y="598"/>
			<point x="-643" y="596" type="curve"/>
			<point x="-636" y="593"/>
			<point x="-635" y="593"/>
			<point x="-630" y="596" type="curve"/>
			<point x="-626" y="598"/>
			<point x="-626" y="598"/>
		</contour>
	</outline>
</glyph>
<glyph name="h" format="2">
	<advance width="0"/>
	<unicode hex="0068"/>
	<outline>
		<contour>
			<point x="-781" y="441" type="curve"/>
			<point x="-781" y="441" type="line"/>
			<point x="-802" y="448"/>
			<point x="-832" y="483"/>
			<point x="-832" y="498" type="curve"/>
			<point x="-832" y="517"/>
			<point x="-820" y="537"/>
			<point x="-807" y="537" type="curve"/>
			<point x="-799" y="537"/>
			<point x="-787" y="525"/>
			<point x="-779" y="507" type="curve"/>
			<point x="-766" y="481"/>
			<point x="-753" y="483"/>
			<point x="-723" y="514" type="curve"/>
			<point x="-709" y="528"/>
			<point x="-697" y="543"/>
			<point x="-697" y="545" type="curve"/>
			<point x="-697" y="546"/>
			<point x="-700" y="552"/>
			<point x="-703" y="558" type="curve"/>
			<point x="-715" y="580"/>
			<point x="-720" y="610"/>
			<point x="-714" y="630" type="curve"/>
			<point x="-711" y="640"/>
			<point x="-697" y="655"/>
			<point x="-684" y="663" type="curve"/>
			<point x="-675" y="666"/>
			<point x="-671" y="667"/>
			<point x="-652" y="667" type="curve"/>
			<point x="-627" y="667"/>
			<point x="-617" y="664"/>
			<point x="-603" y="651" type="curve"/>
			<point x="-593" y="642" type="line"/>
			<point x="-552" y="684" type="line"/>
			<point x="-531" y="707"/>
			<point x="-511" y="725"/>
			<point x="-510" y="725" type="curve"/>
			<point x="-507" y="725"/>
			<point x="-492" y="712"/>
			<point x="-490" y="705" type="curve"/>
			<point x="-484" y="690"/>
			<point x="-485" y="684"/>
			<point x="-499" y="671" type="curve"/>
			<point x="-505" y="665"/>
			<point x="-523" y="651"/>
			<point x="-538" y="640" type="curve"/>
			<point x="-553" y="628"/>
			<point x="-567" y="618"/>
			<point x="-568" y="616" type="curve"/>
			<point x="-569" y="613"/>
			<point x="-567" y="609"/>
			<point x="-559" y="594" type="curve"/>
			<point x="-551" y="576"/>
			<point x="-550" y="574"/>
			<point x="-550" y="556" type="curve"/>
			<point x="-549" y="539"/>
			<point x="-549" y="535"/>
			<point x="-553" y="527" type="curve"/>
			<point x="-562" y="510"/>
			<point x="-586" y="496"/>
			<point x="-607" y="496" type="curve"/>
			<point x="-621" y="496"/>
			<point x="-648" y="502"/>
			<point x="-661" y="507" type="curve"/>
			<point x="-672" y="511" type="line"/>
			<point x="-676" y="507" type="line"/>
			<point x="-691" y="483"/>
			<point x="-718" y="459"/>
			<point x="-743" y="445" type="curve"/>
			<point x="-761" y="437"/>
			<point x="-769" y="436"/>
		</contour>
		<contour>
			<point x="-621" y="556" type="curve"/>
			<point x="-621" y="556" type="line"/>
			<point x="-611" y="561"/>
			<point x="-605" y="575"/>
			<point x="-605" y="593" type="curve"/>
			<point x="-605" y="610"/>
			<point x="-607" y="612"/>
			<point x="-627" y="612" type="curve"/>
			<point x="-642" y="612"/>
			<point x="-648" y="609"/>
			<point x="-655" y="594" type="curve"/>
			<point x="-663" y="577"/>
			<point x="-663" y="564"/>
			<point x="-654" y="556" type="curve"/>
			<point x="-648" y="550"/>
			<point x="-647" y="549"/>
			<point x="-637" y="550" type="curve"/>
			<point x="-631" y="551"/>
			<point x="-624" y="553"/>
		</contour>
	</outline>
</glyph>
<glyph name="i" format="2">
	<advance width="0"/>
	<unicode hex="0069"/>
	<outline>
		<contour>
			<point x="-633" y="444" type="curve"/>
			<point x="-633" y="444" type="line"/>
			<point x="-641" y="448"/>
			<point x="-654" y="452"/>
			<point x="-659" y="457" type="curve"/>
			<point x="-681" y="469"/>
			<point x="-718" y="467"/>
			<point x="-742" y="451" type="curve"/>
			<point x="-752" y="444"/>
			<point x="-759" y="443"/>
			<point x="-764" y="448" type="curve"/>
			<point x="-768" y="452"/>
			<point x="-766" y="457"/>
			<point x="-747" y="474" type="curve"/>
			<point x="-724" y="493"/>
			<point x="-717" y="503"/>
			<point x="-714" y="525" type="curve"/>
			<point x="-713" y="532"/>
			<point x="-713" y="538"/>
			<point x="-713" y="538" type="curve"/>
			<point x="-714" y="540"/>
			<point x="-718" y="542"/>
			<point x="-724" y="542" type="curve"/>
			<point x="-731" y="543"/>
			<point x="-739" y="545"/>
			<point x="-744" y="549" type="curve"/>
			<point x="-757" y="553"/>
			<point x="-774" y="569"/>
			<point x="-781" y="580" type="curve"/>
			<point x="-784" y="588"/>
			<point x="-786" y="592"/>
			<point x="-784" y="603" type="curve"/>
			<point x="-783" y="627"/>
			<point x="-768" y="642"/>
			<point x="-731" y="655" type="curve"/>
			<point x="-706" y="662" type="line"/>
			<point x="-671" y="664" type="line"/>
			<point x="-664" y="664"/>
			<point x="-656" y="663"/>
			<point x="-651" y="662" type="curve"/>
			<point x="-634" y="656"/>
			<point x="-615" y="632"/>
			<point x="-613" y="611" type="curve"/>
			<point x="-613" y="602"/>
			<point x="-613" y="601"/>
			<point x="-621" y="588" type="curve"/>
			<point x="-632" y="572"/>
			<point x="-649" y="555"/>
			<point x="-666" y="549" type="curve"/>
			<point x="-681" y="542" type="line"/>
			<point x="-680" y="529" type="line"/>
			<point x="-679" y="508"/>
			<point x="-679" y="508"/>
			<point x="-663" y="505" type="curve"/>
			<point x="-647" y="502"/>
			<point x="-633" y="495"/>
			<point x="-621" y="485" type="curve"/>
			<point x="-608" y="474"/>
			<point x="-591" y="467"/>
			<point x="-577" y="467" type="curve"/>
			<point x="-569" y="467"/>
			<point x="-562" y="469"/>
			<point x="-549" y="474" type="curve"/>
			<point x="-536" y="483"/>
			<point x="-536" y="483"/>
			<point x="-531" y="478" type="curve"/>
			<point x="-527" y="474"/>
			<point x="-527" y="473"/>
			<point x="-530" y="467" type="curve"/>
			<point x="-536" y="458"/>
			<point x="-547" y="449"/>
			<point x="-558" y="444" type="curve"/>
			<point x="-574" y="439"/>
			<point x="-612" y="439"/>
		</contour>
		<contour>
			<point x="-688" y="575" type="curve"/>
			<point x="-688" y="575" type="line"/>
			<point x="-674" y="583"/>
			<point x="-666" y="597"/>
			<point x="-666" y="613" type="curve"/>
			<point x="-666" y="623"/>
			<point x="-667" y="624"/>
			<point x="-672" y="630" type="curve"/>
			<point x="-676" y="632"/>
			<point x="-683" y="636"/>
			<point x="-687" y="638" type="curve"/>
			<point x="-694" y="642" type="line"/>
			<point x="-705" y="636" type="line"/>
			<point x="-716" y="628"/>
			<point x="-723" y="623"/>
			<point x="-727" y="613" type="curve"/>
			<point x="-732" y="604"/>
			<point x="-732" y="595"/>
			<point x="-727" y="587" type="curve"/>
			<point x="-717" y="571"/>
			<point x="-701" y="567"/>
		</contour>
	</outline>
</glyph>
<glyph name="k" format="2">
	<advance width="0"/>
	<unicode hex="006B"/>
	<outline>
		<contour>
			<point x="-776" y="445" type="curve"/>
			<point x="-776" y="445" type="line"/>
			<point x="-797" y="453"/>
			<point x="-827" y="487"/>
			<point x="-827" y="503" type="curve"/>
			<point x="-827" y="522"/>
			<point x="-815" y="541"/>
			<point x="-801" y="541" type="curve"/>
			<point x="-794" y="541"/>
			<point x="-782" y="529"/>
			<point x="-774" y="511" type="curve"/>
			<point x="-761" y="486"/>
			<point x="-747" y="487"/>
			<point x="-717" y="519" type="curve"/>
			<point x="-704" y="533"/>
			<point x="-692" y="547"/>
			<point x="-692" y="550" type="curve"/>
			<point x="-692" y="551"/>
			<point x="-695" y="557"/>
			<point x="-698" y="563" type="curve"/>
			<point x="-710" y="585"/>
			<point x="-715" y="615"/>
			<point x="-709" y="635" type="curve"/>
			<point x="-705" y="645"/>
			<point x="-692" y="660"/>
			<point x="-679" y="667" type="curve"/>
			<point x="-669" y="671"/>
			<point x="-666" y="672"/>
			<point x="-647" y="672" type="curve"/>
			<point x="-621" y="672"/>
			<point x="-612" y="669"/>
			<point x="-597" y="655" type="curve"/>
			<point x="-588" y="647" type="line"/>
			<point x="-571" y="627" type="line"/>
			<point x="-554" y="599" type="line"/>
			<point x="-546" y="581"/>
			<point x="-545" y="579"/>
			<point x="-545" y="561" type="curve"/>
			<point x="-543" y="544"/>
			<point x="-543" y="540"/>
			<point x="-548" y="532" type="curve"/>
			<point x="-557" y="515"/>
			<point x="-581" y="501"/>
			<point x="-602" y="501" type="curve"/>
			<point x="-615" y="501"/>
			<point x="-643" y="507"/>
			<point x="-656" y="511" type="curve"/>
			<point x="-667" y="516" type="line"/>
			<point x="-671" y="511" type="line"/>
			<point x="-686" y="487"/>
			<point x="-713" y="463"/>
			<point x="-738" y="450" type="curve"/>
			<point x="-756" y="442"/>
			<point x="-764" y="441"/>
		</contour>
		<contour>
			<point x="-615" y="561" type="curve"/>
			<point x="-615" y="561" type="line"/>
			<point x="-606" y="565"/>
			<point x="-600" y="580"/>
			<point x="-600" y="598" type="curve"/>
			<point x="-600" y="615"/>
			<point x="-602" y="617"/>
			<point x="-621" y="617" type="curve"/>
			<point x="-637" y="617"/>
			<point x="-643" y="613"/>
			<point x="-650" y="599" type="curve"/>
			<point x="-657" y="582"/>
			<point x="-657" y="569"/>
			<point x="-649" y="561" type="curve"/>
			<point x="-643" y="555"/>
			<point x="-642" y="553"/>
			<point x="-632" y="555" type="curve"/>
			<point x="-626" y="556"/>
			<point x="-619" y="558"/>
		</contour>
	</outline>
</glyph>
<glyph name="u" format="2">
	<advance width="0"/>
	<unicode hex="0075"/>
	<outline>
		<contour>
			<point x="-633" y="435" type="curve"/>
			<point x="-633" y="435" type="line"/>
			<point x="-641" y="438"/>
			<point x="-654" y="443"/>
			<point x="-659" y="447" type="curve"/>
			<point x="-681" y="460"/>
			<point x="-718" y="459"/>
			<point x="-742" y="442" type="curve"/>
			<point x="-752" y="435"/>
			<point x="-759" y="434"/>
			<point x="-764" y="438" type="curve"/>
			<point x="-768" y="443"/>
			<point x="-766" y="447"/>
			<point x="-747" y="464" type="curve"/>
			<point x="-724" y="484"/>
			<point x="-717" y="494"/>
			<point x="-714" y="515" type="curve"/>
			<point x="-713" y="522"/>
			<point x="-713" y="529"/>
			<point x="-713" y="529" type="curve"/>
			<point x="-714" y="530"/>
			<point x="-718" y="531"/>
			<point x="-724" y="531" type="curve"/>
			<point x="-731" y="534"/>
			<point x="-739" y="536"/>
			<point x="-744" y="538" type="curve"/>
			<point x="-757" y="544"/>
			<point x="-774" y="560"/>
			<point x="-781" y="571" type="curve"/>
			<point x="-784" y="579"/>
			<point x="-786" y="582"/>
			<point x="-784" y="594" type="curve"/>
			<point x="-783" y="617"/>
			<point x="-768" y="632"/>
			<point x="-731" y="646" type="curve"/>
			<point x="-710" y="654"/>
			<point x="-713" y="648"/>
			<point x="-715" y="690" type="curve"/>
			<point x="-717" y="714" type="line"/>
			<point x="-710" y="721" type="line"/>
			<point x="-702" y="727"/>
			<point x="-688" y="732"/>
			<point x="-683" y="727" type="curve"/>
			<point x="-680" y="726"/>
			<point x="-680" y="718"/>
			<point x="-681" y="690" type="curve"/>
			<point x="-681" y="655" type="line"/>
			<point x="-671" y="655" type="line"/>
			<point x="-664" y="655"/>
			<point x="-656" y="654"/>
			<point x="-651" y="653" type="curve"/>
			<point x="-634" y="647"/>
			<point x="-615" y="623"/>
			<point x="-613" y="602" type="curve"/>
			<point x="-613" y="592"/>
			<point x="-613" y="590"/>
			<point x="-621" y="579" type="curve"/>
			<point x="-632" y="563"/>
			<point x="-649" y="547"/>
			<point x="-666" y="538" type="curve"/>
			<point x="-681" y="531" type="line"/>
			<point x="-680" y="520" type="line"/>
			<point x="-679" y="498"/>
			<point x="-679" y="498"/>
			<point x="-663" y="496" type="curve"/>
			<point x="-647" y="493"/>
			<point x="-633" y="486"/>
			<point x="-621" y="476" type="curve"/>
			<point x="-608" y="464"/>
			<point x="-591" y="459"/>
			<point x="-577" y="459" type="curve"/>
			<point x="-569" y="459"/>
			<point x="-562" y="460"/>
			<point x="-549" y="464" type="curve"/>
			<point x="-536" y="472"/>
			<point x="-536" y="472"/>
			<point x="-531" y="469" type="curve"/>
			<point x="-527" y="464"/>
			<point x="-527" y="463"/>
			<point x="-530" y="459" type="curve"/>
			<point x="-536" y="449"/>
			<point x="-547" y="439"/>
			<point x="-558" y="435" type="curve"/>
			<point x="-574" y="428"/>
			<point x="-612" y="428"/>
		</contour>
		<contour>
			<point x="-688" y="565" type="curve"/>
			<point x="-688" y="565" type="line"/>
			<point x="-674" y="573"/>
			<point x="-666" y="588"/>
			<point x="-666" y="604" type="curve"/>
			<point x="-666" y="614"/>
			<point x="-667" y="615"/>
			<point x="-672" y="621" type="curve"/>
			<point x="-676" y="623"/>
			<point x="-683" y="628"/>
			<point x="-687" y="629" type="curve"/>
			<point x="-694" y="632" type="line"/>
			<point x="-705" y="628" type="line"/>
			<point x="-716" y="619"/>
			<point x="-723" y="614"/>
			<point x="-727" y="604" type="curve"/>
			<point x="-732" y="595"/>
			<point x="-732" y="586"/>
			<point x="-727" y="578" type="curve"/>
			<point x="-717" y="562"/>
			<point x="-701" y="557"/>
		</contour>
	</outline>
</glyph>
<glyph name="w" format="2">
	<advance width="0"/>
	<unicode hex="0077"/>
	<outline>
		<contour>
			<point x="-626" y="398" type="curve"/>
			<point x="-626" y="398" type="line"/>
			<point x="-638" y="402"/>
			<point x="-643" y="409"/>
			<point x="-643" y="423" type="curve"/>
			<point x="-643" y="429"/>
			<point x="-642" y="432"/>
			<point x="-638" y="436" type="curve"/>
			<point x="-633" y="441"/>
			<point x="-632" y="448"/>
			<point x="-638" y="451" type="curve"/>
			<point x="-640" y="452"/>
			<point x="-649" y="453"/>
			<point x="-657" y="455" type="curve"/>
			<point x="-672" y="457"/>
			<point x="-676" y="456"/>
			<point x="-696" y="452" type="curve"/>
			<point x="-715" y="447"/>
			<point x="-721" y="447"/>
			<point x="-734" y="448" type="curve"/>
			<point x="-760" y="450"/>
			<point x="-768" y="454"/>
			<point x="-768" y="466" type="curve"/>
			<point x="-768" y="482"/>
			<point x="-740" y="515"/>
			<point x="-698" y="546" type="curve"/>
			<point x="-680" y="560"/>
			<point x="-680" y="560"/>
			<point x="-686" y="561" type="curve"/>
			<point x="-689" y="561"/>
			<point x="-698" y="560"/>
			<point x="-705" y="559" type="curve"/>
			<point x="-712" y="557"/>
			<point x="-726" y="555"/>
			<point x="-735" y="554" type="curve"/>
			<point x="-765" y="553"/>
			<point x="-768" y="562"/>
			<point x="-746" y="589" type="curve"/>
			<point x="-737" y="599"/>
			<point x="-724" y="609"/>
			<point x="-700" y="624" type="curve"/>
			<point x="-688" y="630"/>
			<point x="-675" y="637"/>
			<point x="-671" y="640" type="curve"/>
			<point x="-666" y="643"/>
			<point x="-659" y="648"/>
			<point x="-656" y="649" type="curve"/>
			<point x="-650" y="652" type="line"/>
			<point x="-669" y="654" type="line"/>
			<point x="-714" y="657"/>
			<point x="-737" y="667"/>
			<point x="-737" y="683" type="curve"/>
			<point x="-737" y="690"/>
			<point x="-731" y="695"/>
			<point x="-712" y="709" type="curve"/>
			<point x="-664" y="745"/>
			<point x="-619" y="764"/>
			<point x="-584" y="767" type="curve"/>
			<point x="-566" y="767" type="line"/>
			<point x="-560" y="760" type="line"/>
			<point x="-552" y="753"/>
			<point x="-552" y="752"/>
			<point x="-557" y="745" type="curve"/>
			<point x="-563" y="738"/>
			<point x="-575" y="732"/>
			<point x="-602" y="724" type="curve"/>
			<point x="-634" y="714"/>
			<point x="-656" y="705"/>
			<point x="-669" y="695" type="curve"/>
			<point x="-681" y="687"/>
			<point x="-682" y="688"/>
			<point x="-648" y="683" type="curve"/>
			<point x="-613" y="679"/>
			<point x="-608" y="677"/>
			<point x="-603" y="670" type="curve"/>
			<point x="-592" y="657"/>
			<point x="-606" y="643"/>
			<point x="-654" y="615" type="curve"/>
			<point x="-675" y="603" type="line"/>
			<point x="-646" y="602" type="line"/>
			<point x="-616" y="602"/>
			<point x="-616" y="602"/>
			<point x="-611" y="597" type="curve"/>
			<point x="-598" y="585"/>
			<point x="-607" y="572"/>
			<point x="-646" y="546" type="curve"/>
			<point x="-681" y="523"/>
			<point x="-692" y="513"/>
			<point x="-703" y="501" type="curve"/>
			<point x="-708" y="494"/>
			<point x="-712" y="488"/>
			<point x="-712" y="487" type="curve"/>
			<point x="-711" y="486"/>
			<point x="-694" y="485"/>
			<point x="-671" y="486" type="curve"/>
			<point x="-628" y="487"/>
			<point x="-618" y="486"/>
			<point x="-599" y="479" type="curve"/>
			<point x="-578" y="471"/>
			<point x="-566" y="456"/>
			<point x="-566" y="434" type="curve"/>
			<point x="-566" y="422"/>
			<point x="-566" y="421"/>
			<point x="-574" y="412" type="curve"/>
			<point x="-581" y="404"/>
			<point x="-582" y="403"/>
			<point x="-595" y="400" type="curve"/>
			<point x="-609" y="397"/>
			<point x="-621" y="396"/>
		</contour>
	</outline>
</glyph>
<glyph name="y" format="2">
	<advance width="0"/>
	<unicode hex="0079"/>
	<outline>
		<contour>
			<point x="-615" y="413" type="curve"/>
			<point x="-615" y="413" type="line"/>
			<point x="-622" y="417"/>
			<point x="-626" y="423"/>
			<point x="-628" y="432" type="curve"/>
			<point x="-628" y="438"/>
			<point x="-628" y="440"/>
			<point x="-624" y="445" type="curve"/>
			<point x="-614" y="457"/>
			<point x="-619" y="461"/>
			<point x="-646" y="461" type="curve"/>
			<point x="-662" y="461"/>
			<point x="-671" y="460"/>
			<point x="-695" y="454" type="curve"/>
			<point x="-705" y="452"/>
			<point x="-714" y="451"/>
			<point x="-727" y="451" type="curve"/>
			<point x="-756" y="451"/>
			<point x="-761" y="453"/>
			<point x="-759" y="466" type="curve"/>
			<point x="-757" y="484"/>
			<point x="-734" y="511"/>
			<point x="-693" y="548" type="curve"/>
			<point x="-681" y="558"/>
			<point x="-676" y="563"/>
			<point x="-677" y="563" type="curve"/>
			<point x="-680" y="563"/>
			<point x="-691" y="561"/>
			<point x="-705" y="556" type="curve"/>
			<point x="-730" y="549"/>
			<point x="-750" y="548"/>
			<point x="-757" y="550" type="curve"/>
			<point x="-764" y="555"/>
			<point x="-760" y="567"/>
			<point x="-743" y="585" type="curve"/>
			<point x="-735" y="594"/>
			<point x="-723" y="604"/>
			<point x="-693" y="624" type="curve"/>
			<point x="-654" y="650" type="line"/>
			<point x="-684" y="650" type="line"/>
			<point x="-708" y="650"/>
			<point x="-717" y="650"/>
			<point x="-725" y="653" type="curve"/>
			<point x="-746" y="659"/>
			<point x="-749" y="674"/>
			<point x="-735" y="687" type="curve"/>
			<point x="-720" y="699"/>
			<point x="-695" y="718"/>
			<point x="-676" y="731" type="curve"/>
			<point x="-654" y="743"/>
			<point x="-654" y="742"/>
			<point x="-679" y="750" type="curve"/>
			<point x="-693" y="753"/>
			<point x="-703" y="760"/>
			<point x="-703" y="763" type="curve"/>
			<point x="-703" y="767"/>
			<point x="-681" y="778"/>
			<point x="-675" y="778" type="curve"/>
			<point x="-672" y="778"/>
			<point x="-661" y="774"/>
			<point x="-650" y="769" type="curve"/>
			<point x="-639" y="763"/>
			<point x="-629" y="760"/>
			<point x="-628" y="760" type="curve"/>
			<point x="-626" y="760"/>
			<point x="-617" y="764"/>
			<point x="-608" y="769" type="curve"/>
			<point x="-588" y="781"/>
			<point x="-582" y="782"/>
			<point x="-570" y="775" type="curve"/>
			<point x="-558" y="770"/>
			<point x="-556" y="769"/>
			<point x="-566" y="760" type="curve"/>
			<point x="-572" y="756"/>
			<point x="-578" y="751"/>
			<point x="-583" y="748" type="curve"/>
			<point x="-587" y="746"/>
			<point x="-589" y="742"/>
			<point x="-589" y="742" type="curve"/>
			<point x="-589" y="741"/>
			<point x="-586" y="739"/>
			<point x="-582" y="738" type="curve"/>
			<point x="-569" y="732"/>
			<point x="-540" y="718"/>
			<point x="-540" y="718" type="curve"/>
			<point x="-540" y="716"/>
			<point x="-544" y="709"/>
			<point x="-548" y="705" type="curve"/>
			<point x="-551" y="702"/>
			<point x="-553" y="702"/>
			<point x="-560" y="702" type="curve"/>
			<point x="-569" y="702"/>
			<point x="-574" y="703"/>
			<point x="-595" y="713" type="curve"/>
			<point x="-620" y="724" type="line"/>
			<point x="-649" y="706" type="line"/>
			<point x="-666" y="694"/>
			<point x="-681" y="686"/>
			<point x="-683" y="684" type="curve"/>
			<point x="-685" y="682"/>
			<point x="-682" y="681"/>
			<point x="-651" y="680" type="curve"/>
			<point x="-617" y="680"/>
			<point x="-616" y="680"/>
			<point x="-608" y="675" type="curve"/>
			<point x="-604" y="672"/>
			<point x="-600" y="669"/>
			<point x="-600" y="668" type="curve"/>
			<point x="-595" y="657"/>
			<point x="-616" y="637"/>
			<point x="-666" y="606" type="curve"/>
			<point x="-676" y="599" type="line"/>
			<point x="-660" y="602" type="line"/>
			<point x="-650" y="602"/>
			<point x="-636" y="603"/>
			<point x="-627" y="604" type="curve"/>
			<point x="-610" y="605"/>
			<point x="-610" y="605"/>
			<point x="-606" y="599" type="curve"/>
			<point x="-602" y="596"/>
			<point x="-602" y="594"/>
			<point x="-602" y="588" type="curve"/>
			<point x="-603" y="580"/>
			<point x="-610" y="571"/>
			<point x="-625" y="562" type="curve"/>
			<point x="-631" y="556"/>
			<point x="-649" y="543"/>
			<point x="-663" y="532" type="curve"/>
			<point x="-691" y="509"/>
			<point x="-706" y="490"/>
			<point x="-704" y="487" type="curve"/>
			<point x="-702" y="487"/>
			<point x="-694" y="487"/>
			<point x="-679" y="489" type="curve"/>
			<point x="-598" y="504"/>
			<point x="-548" y="487"/>
			<point x="-548" y="446" type="curve"/>
			<point x="-547" y="438"/>
			<point x="-548" y="438"/>
			<point x="-555" y="429" type="curve"/>
			<point x="-563" y="422"/>
			<point x="-566" y="420"/>
			<point x="-577" y="416" type="curve"/>
			<point x="-595" y="411"/>
			<point x="-607" y="410"/>
		</contour>
	</outline>
</glyph>
<glyph name="_part.circle" format="2">
	<advance width="208"/>
	<outline>
		<contour>
			<point x="68" y="331" type="curve"/>
			<point x="68" y="331" type="line"/>
			<point x="48" y="340"/>
			<point x="25" y="360"/>
			<point x="15" y="369" type="curve"/>
			<point x="-2" y="385"/>
			<point x="0" y="413"/>
			<point x="2" y="420" type="curve"/>
			<point x="12" y="455"/>
			<point x="53" y="486"/>
			<point x="86" y="484" type="curve"/>
			<point x="150" y="480"/>
			<point x="187" y="448"/>
			<point x="201" y="414" type="curve"/>
			<point x="207" y="399"/>
			<point x="214" y="371"/>
			<point x="201" y="352" type="curve"/>
			<point x="177" y="317"/>
			<point x="118" y="308"/>
		</contour>
		<contour>
			<point x="98" y="364" type="curve"/>
			<point x="98" y="364" type="line"/>
			<point x="117" y="359"/>
			<point x="144" y="367"/>
			<point x="154" y="381" type="curve"/>
			<point x="168" y="401"/>
			<point x="113" y="449"/>
			<point x="84" y="441" type="curve"/>
			<point x="65" y="438"/>
			<point x="45" y="419"/>
			<point x="49" y="406" type="curve"/>
			<point x="57" y="381"/>
			<point x="67" y="372"/>
		</contour>
	</outline>
</glyph>
<glyph name="_part.diatonic_ga.001" format="2">
	<advance width="187"/>
	<outline>
		<contour>
			<point x="92" y="109" type="curve"/>
			<point x="92" y="109" type="line"/>
			<point x="114" y="113"/>
			<point x="117" y="119"/>
			<point x="114" y="144" type="curve"/>
			<point x="109" y="182"/>
			<point x="105" y="215"/>
			<point x="110" y="254" type="curve"/>
			<point x="113" y="291"/>
			<point x="114" y="295"/>
			<point x="134" y="320" type="curve"/>
			<point x="161" y="353"/>
			<point x="186" y="410"/>
			<point x="187" y="437" type="curve"/>
			<point x="187" y="470"/>
			<point x="171" y="493"/>
			<point x="142" y="510" type="curve"/>
			<point x="119" y="523" type="line"/>
			<point x="128" y="585" type="line" smooth="yes"/>
			<point x="138" y="657"/>
			<point x="138" y="688"/>
			<point x="128" y="696" type="curve"/>
			<point x="107" y="715"/>
			<point x="77" y="698"/>
			<point x="79" y="672" type="curve"/>
			<point x="82" y="632"/>
			<point x="88" y="579"/>
			<point x="85" y="555" type="curve"/>
			<point x="84" y="535"/>
			<point x="81" y="522"/>
			<point x="69" y="506" type="curve"/>
			<point x="61" y="495"/>
			<point x="41" y="463"/>
			<point x="27" y="438" type="curve"/>
			<point x="5" y="401"/>
			<point x="-1" y="387"/>
			<point x="0" y="372" type="curve"/>
			<point x="0" y="342"/>
			<point x="15" y="320"/>
			<point x="46" y="301" type="curve"/>
			<point x="73" y="284" type="line"/>
			<point x="66" y="227" type="line" smooth="yes"/>
			<point x="61" y="185"/>
			<point x="56" y="163"/>
			<point x="61" y="136" type="curve"/>
			<point x="62" y="111"/>
			<point x="69" y="107"/>
		</contour>
		<contour>
			<point x="90" y="345" type="curve"/>
			<point x="90" y="345" type="line"/>
			<point x="72" y="342"/>
			<point x="58" y="352"/>
			<point x="49" y="377" type="curve"/>
			<point x="43" y="396"/>
			<point x="44" y="402"/>
			<point x="56" y="422" type="curve"/>
			<point x="73" y="453"/>
			<point x="94" y="463"/>
			<point x="113" y="450" type="curve"/>
			<point x="123" y="445"/>
			<point x="127" y="434"/>
			<point x="129" y="423" type="curve"/>
			<point x="132" y="397"/>
			<point x="109" y="350"/>
		</contour>
	</outline>
</glyph>
<glyph name="_part.diatonic_ke" format="2">
	<advance width="207"/>
	<outline>
		<contour>
			<point x="104" y="480" type="curve"/>
			<point x="104" y="480" type="line"/>
			<point x="117" y="479"/>
			<point x="120" y="476"/>
			<point x="122" y="459" type="curve"/>
			<point x="123" y="448"/>
			<point x="122" y="418"/>
			<point x="119" y="391" type="curve"/>
			<point x="116" y="363"/>
			<point x="115" y="344"/>
			<point x="122" y="342" type="curve"/>
			<point x="157" y="332"/>
			<point x="62" y="319"/>
			<point x="71" y="329" type="curve"/>
			<point x="86" y="347"/>
			<point x="86" y="349"/>
			<point x="80" y="401" type="curve"/>
			<point x="73" y="464"/>
			<point x="79" y="482"/>
		</contour>
		<component base="_part.circle" xOffset="-1" yOffset="-136"/>
	</outline>
</glyph>
<glyph name="_part.double_flat" format="2">
	<advance width="325"/>
	<outline>
		<contour>
			<point x="3" y="305" type="curve"/>
			<point x="3" y="305" type="line"/>
			<point x="-2" y="317"/>
			<point x="-1" y="320"/>
			<point x="12" y="331" type="curve"/>
			<point x="21" y="338"/>
			<point x="47" y="352"/>
			<point x="72" y="362" type="curve"/>
			<point x="98" y="374"/>
			<point x="115" y="383"/>
			<point x="113" y="390" type="curve"/>
			<point x="103" y="424"/>
			<point x="116" y="467"/>
			<point x="145" y="482" type="curve"/>
			<point x="184" y="502"/>
			<point x="282" y="496"/>
			<point x="310" y="473" type="curve"/>
			<point x="321" y="462"/>
			<point x="325" y="455"/>
			<point x="325" y="433" type="curve"/>
			<point x="325" y="376"/>
			<point x="290" y="348"/>
			<point x="216" y="348" type="curve"/>
			<point x="193" y="348"/>
			<point x="163" y="349"/>
			<point x="150" y="352" type="curve"/>
			<point x="127" y="356"/>
			<point x="125" y="355"/>
			<point x="83" y="324" type="curve"/>
			<point x="32" y="287"/>
			<point x="13" y="282"/>
		</contour>
		<contour>
			<point x="161" y="401" type="curve"/>
			<point x="161" y="401" type="line"/>
			<point x="186" y="376"/>
			<point x="222" y="387"/>
			<point x="235" y="391" type="curve"/>
			<point x="256" y="397"/>
			<point x="264" y="415"/>
			<point x="264" y="432" type="curve"/>
			<point x="264" y="457"/>
			<point x="193" y="467"/>
			<point x="172" y="446" type="curve"/>
			<point x="157" y="433"/>
			<point x="153" y="411"/>
		</contour>
		<component base="_part.line_small" xScale="0.6428" xyScale="0.766" yScale="0.6428" yxScale="-0.766" xOffset="371" yOffset="68"/>
	</outline>
</glyph>
<glyph name="_part.flat" format="2">
	<advance width="325"/>
	<outline>
		<contour>
			<point x="3" y="305" type="curve"/>
			<point x="3" y="305" type="line"/>
			<point x="13" y="282"/>
			<point x="32" y="287"/>
			<point x="83" y="324" type="curve"/>
			<point x="125" y="355"/>
			<point x="127" y="356"/>
			<point x="150" y="352" type="curve"/>
			<point x="163" y="349"/>
			<point x="193" y="348"/>
			<point x="216" y="348" type="curve"/>
			<point x="290" y="348"/>
			<point x="325" y="376"/>
			<point x="325" y="433" type="curve"/>
			<point x="325" y="455"/>
			<point x="321" y="462"/>
			<point x="310" y="473" type="curve"/>
			<point x="282" y="496"/>
			<point x="184" y="502"/>
			<point x="145" y="482" type="curve"/>
			<point x="116" y="467"/>
			<point x="103" y="424"/>
			<point x="113" y="390" type="curve"/>
			<point x="115" y="383"/>
			<point x="98" y="374"/>
			<point x="72" y="362" type="curve"/>
			<point x="47" y="352"/>
			<point x="21" y="338"/>
			<point x="12" y="331" type="curve"/>
			<point x="-1" y="320"/>
			<point x="-2" y="317"/>
		</contour>
		<contour>
			<point x="235" y="391" type="curve"/>
			<point x="235" y="391" type="line"/>
			<point x="222" y="387"/>
			<point x="186" y="376"/>
			<point x="161" y="401" type="curve"/>
			<point x="153" y="411"/>
			<point x="157" y="433"/>
			<point x="172" y="446" type="curve"/>
			<point x="193" y="467"/>
			<point x="264" y="457"/>
			<point x="264" y="432" type="curve"/>
			<point x="264" y="415"/>
			<point x="256" y="397"/>
		</contour>
	</outline>
</glyph>
<glyph name="_part.fthora_chromatic_2" format="2">
	<advance width="588"/>
	<outline>
		<contour>
			<point x="50" y="244" type="curve"/>
			<point x="50" y="244" type="line"/>
			<point x="81" y="267"/>
			<point x="133" y="303"/>
			<point x="169" y="318" type="curve"/>
			<point x="203" y="334"/>
			<point x="207" y="335"/>
			<point x="238" y="330" type="curve"/>
			<point x="281" y="323"/>
			<point x="343" y="330"/>
			<point x="366" y="343" type="curve"/>
			<point x="395" y="359"/>
			<point x="407" y="385"/>
			<point x="407" y="418" type="curve"/>
			<point x="407" y="445" type="line"/>
			<point x="465" y="468" type="line" smooth="yes"/>
			<point x="533" y="495"/>
			<point x="585" y="526"/>
			<point x="587" y="538" type="curve"/>
			<point x="593" y="566"/>
			<point x="563" y="584"/>
			<point x="542" y="569" type="curve"/>
			<point x="509" y="546"/>
			<point x="440" y="500"/>
			<point x="418" y="490" type="curve"/>
			<point x="400" y="481"/>
			<point x="387" y="477"/>
			<point x="367" y="479" type="curve"/>
			<point x="353" y="481"/>
			<point x="316" y="482"/>
			<point x="287" y="482" type="curve"/>
			<point x="244" y="482"/>
			<point x="229" y="481"/>
			<point x="217" y="472" type="curve"/>
			<point x="191" y="457"/>
			<point x="179" y="433"/>
			<point x="178" y="397" type="curve"/>
			<point x="177" y="365" type="line"/>
			<point x="124" y="342" type="line" smooth="yes"/>
			<point x="58" y="313"/>
			<point x="38" y="304"/>
			<point x="17" y="286" type="curve"/>
			<point x="-4" y="273"/>
			<point x="-5" y="265"/>
			<point x="9" y="246" type="curve"/>
			<point x="23" y="229"/>
			<point x="30" y="229"/>
		</contour>
		<contour>
			<point x="238" y="381" type="curve"/>
			<point x="238" y="381" type="line"/>
			<point x="227" y="395"/>
			<point x="228" y="412"/>
			<point x="246" y="432" type="curve"/>
			<point x="259" y="447"/>
			<point x="265" y="449"/>
			<point x="288" y="449" type="curve"/>
			<point x="323" y="449"/>
			<point x="343" y="436"/>
			<point x="341" y="413" type="curve"/>
			<point x="341" y="402"/>
			<point x="334" y="393"/>
			<point x="325" y="386" type="curve"/>
			<point x="304" y="370"/>
			<point x="252" y="367"/>
		</contour>
	</outline>
</glyph>
<glyph name="_part.fthora_chromatic_soft_2" format="2">
	<advance width="526"/>
	<outline>
		<contour>
			<point x="50" y="252" type="curve"/>
			<point x="50" y="252" type="line"/>
			<point x="30" y="237"/>
			<point x="23" y="237"/>
			<point x="9" y="254" type="curve"/>
			<point x="-5" y="273"/>
			<point x="-4" y="281"/>
			<point x="17" y="294" type="curve"/>
			<point x="38" y="312"/>
			<point x="56" y="321"/>
			<point x="104" y="342" type="curve"/>
			<point x="157" y="365" type="line"/>
			<point x="158" y="397" type="line" smooth="yes"/>
			<point x="159" y="433"/>
			<point x="171" y="457"/>
			<point x="197" y="472" type="curve"/>
			<point x="209" y="481"/>
			<point x="224" y="482"/>
			<point x="267" y="482" type="curve"/>
			<point x="296" y="482"/>
			<point x="333" y="481"/>
			<point x="347" y="479" type="curve"/>
			<point x="367" y="477"/>
			<point x="380" y="481"/>
			<point x="398" y="490" type="curve"/>
			<point x="420" y="500"/>
			<point x="451" y="524"/>
			<point x="484" y="547" type="curve"/>
			<point x="505" y="562"/>
			<point x="531" y="548"/>
			<point x="525" y="520" type="curve"/>
			<point x="523" y="508"/>
			<point x="482" y="483"/>
			<point x="445" y="468" type="curve"/>
			<point x="387" y="445" type="line"/>
			<point x="387" y="418" type="line" smooth="yes"/>
			<point x="387" y="385"/>
			<point x="375" y="359"/>
			<point x="346" y="343" type="curve"/>
			<point x="323" y="330"/>
			<point x="261" y="323"/>
			<point x="218" y="330" type="curve"/>
			<point x="187" y="335"/>
			<point x="183" y="334"/>
			<point x="149" y="318" type="curve"/>
			<point x="113" y="303"/>
			<point x="81" y="275"/>
		</contour>
		<contour>
			<point x="218" y="381" type="curve"/>
			<point x="218" y="381" type="line"/>
			<point x="232" y="367"/>
			<point x="284" y="370"/>
			<point x="305" y="386" type="curve"/>
			<point x="314" y="393"/>
			<point x="321" y="402"/>
			<point x="321" y="413" type="curve"/>
			<point x="323" y="436"/>
			<point x="303" y="449"/>
			<point x="268" y="449" type="curve"/>
			<point x="245" y="449"/>
			<point x="239" y="447"/>
			<point x="226" y="432" type="curve"/>
			<point x="208" y="412"/>
			<point x="207" y="395"/>
		</contour>
		<component base="_part.line_small" xScale="0.766" xyScale="0.6428" yScale="0.766" yxScale="-0.6428" xOffset="666" yOffset="166"/>
	</outline>
</glyph>
<glyph name="_part.fthora_something" format="2">
	<advance width="546"/>
	<outline>
		<contour>
			<point x="47" y="260" type="curve"/>
			<point x="47" y="260" type="line"/>
			<point x="27" y="245"/>
			<point x="22" y="243"/>
			<point x="8" y="260" type="curve"/>
			<point x="-6" y="279"/>
			<point x="-1" y="282"/>
			<point x="18" y="298" type="curve"/>
			<point x="39" y="315"/>
			<point x="48" y="319"/>
			<point x="92" y="342" type="curve"/>
			<point x="135" y="365" type="line"/>
			<point x="136" y="397" type="line" smooth="yes"/>
			<point x="137" y="433"/>
			<point x="149" y="457"/>
			<point x="175" y="472" type="curve"/>
			<point x="187" y="481"/>
			<point x="202" y="482"/>
			<point x="245" y="482" type="curve"/>
			<point x="274" y="482"/>
			<point x="311" y="481"/>
			<point x="325" y="479" type="curve"/>
			<point x="345" y="477"/>
			<point x="358" y="481"/>
			<point x="376" y="490" type="curve"/>
			<point x="398" y="500"/>
			<point x="467" y="546"/>
			<point x="500" y="569" type="curve"/>
			<point x="521" y="584"/>
			<point x="551" y="566"/>
			<point x="545" y="538" type="curve"/>
			<point x="543" y="526"/>
			<point x="491" y="495"/>
			<point x="423" y="468" type="curve"/>
			<point x="365" y="445" type="line"/>
			<point x="365" y="418" type="line" smooth="yes"/>
			<point x="365" y="385"/>
			<point x="353" y="359"/>
			<point x="324" y="343" type="curve"/>
			<point x="301" y="330"/>
			<point x="239" y="323"/>
			<point x="196" y="330" type="curve"/>
			<point x="165" y="335"/>
			<point x="171" y="334"/>
			<point x="137" y="318" type="curve"/>
			<point x="101" y="303"/>
			<point x="78" y="283"/>
		</contour>
		<contour>
			<point x="196" y="381" type="curve"/>
			<point x="196" y="381" type="line"/>
			<point x="210" y="367"/>
			<point x="262" y="370"/>
			<point x="283" y="386" type="curve"/>
			<point x="292" y="393"/>
			<point x="299" y="402"/>
			<point x="299" y="413" type="curve"/>
			<point x="301" y="436"/>
			<point x="281" y="449"/>
			<point x="246" y="449" type="curve"/>
			<point x="223" y="449"/>
			<point x="217" y="447"/>
			<point x="204" y="432" type="curve"/>
			<point x="186" y="412"/>
			<point x="185" y="395"/>
		</contour>
		<component base="_part.line_small" xScale="-0.766" xyScale="-0.6428" yScale="-0.766" yxScale="0.6428" xOffset="-142" yOffset="645"/>
	</outline>
</glyph>
<glyph name="_part.line_small" format="2">
	<advance width="59"/>
	<outline>
		<contour>
			<point x="32" y="343" type="curve"/>
			<point x="32" y="343" type="line"/>
			<point x="16" y="335"/>
			<point x="0" y="341"/>
			<point x="0" y="352" type="curve"/>
			<point x="0" y="353"/>
			<point x="1" y="362"/>
			<point x="4" y="370" type="curve"/>
			<point x="6" y="376"/>
			<point x="12" y="394"/>
			<point x="13" y="401" type="curve"/>
			<point x="14" y="409"/>
			<point x="12" y="427"/>
			<point x="12" y="435" type="curve"/>
			<point x="11" y="450"/>
			<point x="13" y="452"/>
			<point x="16" y="455" type="curve"/>
			<point x="22" y="461"/>
			<point x="27" y="464"/>
			<point x="35" y="464" type="curve"/>
			<point x="42" y="464"/>
			<point x="50" y="463"/>
			<point x="56" y="450" type="curve"/>
			<point x="60" y="443"/>
			<point x="59" y="423"/>
			<point x="59" y="411" type="curve"/>
			<point x="59" y="405"/>
			<point x="54" y="382"/>
			<point x="52" y="376" type="curve"/>
			<point x="47" y="362"/>
			<point x="46" y="350"/>
		</contour>
	</outline>
</glyph>
<glyph name="_part.permanent_flat" format="2">
	<advance width="174"/>
	<outline>
		<contour>
			<point x="82" y="139" type="curve"/>
			<point x="82" y="139" type="line"/>
			<point x="69" y="140"/>
			<point x="66" y="143"/>
			<point x="64" y="160" type="curve"/>
			<point x="63" y="171"/>
			<point x="64" y="201"/>
			<point x="67" y="228" type="curve"/>
			<point x="70" y="256"/>
			<point x="71" y="275"/>
			<point x="64" y="277" type="curve"/>
			<point x="29" y="287"/>
			<point x="-2" y="318"/>
			<point x="0" y="351" type="curve"/>
			<point x="3" y="415"/>
			<point x="36" y="462"/>
			<point x="70" y="476" type="curve"/>
			<point x="85" y="482"/>
			<point x="113" y="493"/>
			<point x="132" y="482" type="curve"/>
			<point x="182" y="453"/>
			<point x="187" y="410"/>
			<point x="151" y="345" type="curve"/>
			<point x="140" y="325"/>
			<point x="124" y="300"/>
			<point x="115" y="290" type="curve"/>
			<point x="100" y="272"/>
			<point x="100" y="270"/>
			<point x="106" y="218" type="curve"/>
			<point x="113" y="155"/>
			<point x="107" y="137"/>
		</contour>
		<contour>
			<point x="120" y="373" type="curve"/>
			<point x="120" y="373" type="line"/>
			<point x="125" y="392"/>
			<point x="117" y="420"/>
			<point x="103" y="429" type="curve"/>
			<point x="82" y="443"/>
			<point x="37" y="385"/>
			<point x="45" y="356" type="curve"/>
			<point x="48" y="337"/>
			<point x="65" y="322"/>
			<point x="78" y="324" type="curve"/>
			<point x="103" y="331"/>
			<point x="112" y="342"/>
		</contour>
		<component base="_part.line_small" xScale="-0.1736" xyScale="0.9848" yScale="-0.1736" yxScale="-0.9848" xOffset="484" yOffset="262"/>
	</outline>
</glyph>
<glyph name="_part.triple_flat" format="2">
	<advance width="372"/>
	<outline>
		<contour>
			<point x="3" y="279" type="curve"/>
			<point x="3" y="279" type="line"/>
			<point x="-2" y="291"/>
			<point x="-1" y="294"/>
			<point x="12" y="305" type="curve"/>
			<point x="21" y="312"/>
			<point x="94" y="352"/>
			<point x="119" y="362" type="curve"/>
			<point x="145" y="374"/>
			<point x="162" y="383"/>
			<point x="160" y="390" type="curve"/>
			<point x="150" y="424"/>
			<point x="163" y="467"/>
			<point x="192" y="482" type="curve"/>
			<point x="231" y="502"/>
			<point x="329" y="496"/>
			<point x="357" y="473" type="curve"/>
			<point x="368" y="462"/>
			<point x="372" y="455"/>
			<point x="372" y="433" type="curve"/>
			<point x="372" y="376"/>
			<point x="337" y="348"/>
			<point x="263" y="348" type="curve"/>
			<point x="240" y="348"/>
			<point x="210" y="349"/>
			<point x="197" y="352" type="curve"/>
			<point x="174" y="356"/>
			<point x="176" y="353"/>
			<point x="130" y="324" type="curve"/>
			<point x="32" y="261"/>
			<point x="12" y="256"/>
		</contour>
		<contour>
			<point x="208" y="401" type="curve"/>
			<point x="208" y="401" type="line"/>
			<point x="233" y="376"/>
			<point x="269" y="387"/>
			<point x="282" y="391" type="curve"/>
			<point x="303" y="397"/>
			<point x="311" y="415"/>
			<point x="311" y="432" type="curve"/>
			<point x="311" y="457"/>
			<point x="240" y="467"/>
			<point x="219" y="446" type="curve"/>
			<point x="204" y="433"/>
			<point x="200" y="411"/>
		</contour>
		<component base="_part.line_small" xScale="0.6428" xyScale="0.766" yScale="0.6428" yxScale="-0.766" xOffset="423" yOffset="69"/>
		<component base="_part.line_small" xScale="0.6428" xyScale="0.766" yScale="0.6428" yxScale="-0.766" xOffset="369" yOffset="32"/>
	</outline>
</glyph>
<glyph name="ano" format="2">
	<advance width="1365"/>
	<outline>
		<contour>
			<point x="679" y="180" type="curve"/>
			<point x="679" y="180" type="line"/>
			<point x="595" y="193"/>
			<point x="530" y="197"/>
			<point x="479" y="194" type="curve"/>
			<point x="358" y="186"/>
			<point x="367" y="186"/>
			<point x="284" y="188" type="curve"/>
			<point x="186" y="190"/>
			<point x="162" y="193"/>
			<point x="101" y="212" type="curve"/>
			<point x="73" y="221"/>
			<point x="64" y="224"/>
			<point x="29" y="247" type="curve"/>
			<point x="-26" y="279"/>
			<point x="-55" y="310"/>
			<point x="-59" y="337" type="curve"/>
			<point x="-59" y="346"/>
			<point x="-59" y="352"/>
			<point x="-53" y="359" type="curve"/>
			<point x="-43" y="371"/>
			<point x="-27" y="378"/>
			<point x="0" y="379" type="curve"/>
			<point x="58" y="383"/>
			<point x="112" y="370"/>
			<point x="152" y="342" type="curve"/>
			<point x="166" y="334"/>
			<point x="183" y="318"/>
			<point x="189" y="311" type="curve"/>
			<point x="196" y="302"/>
			<point x="194" y="302"/>
			<point x="140" y="305" type="curve"/>
			<point x="88" y="310"/>
			<point x="75" y="310"/>
			<point x="65" y="303" type="curve"/>
			<point x="57" y="299"/>
			<point x="57" y="296"/>
			<point x="58" y="283" type="curve"/>
			<point x="60" y="273"/>
			<point x="67" y="262"/>
			<point x="74" y="258" type="curve"/>
			<point x="77" y="257"/>
			<point x="95" y="253"/>
			<point x="112" y="248" type="curve"/>
			<point x="157" y="237"/>
			<point x="164" y="237"/>
			<point x="272" y="250" type="curve"/>
			<point x="383" y="262"/>
			<point x="388" y="263"/>
			<point x="475" y="265" type="curve"/>
			<point x="558" y="269"/>
			<point x="565" y="269"/>
			<point x="595" y="259" type="curve"/>
			<point x="620" y="252"/>
			<point x="638" y="243"/>
			<point x="670" y="224" type="curve"/>
			<point x="696" y="209"/>
			<point x="701" y="206"/>
			<point x="711" y="194" type="curve"/>
			<point x="729" y="173"/>
			<point x="727" y="173"/>
		</contour>
		<contour>
			<point x="1322" y="-15" type="curve"/>
			<point x="1322" y="-15" type="line"/>
			<point x="1319" y="-11"/>
			<point x="1231" y="-3"/>
			<point x="1138" y="3" type="curve"/>
			<point x="1046" y="9"/>
			<point x="967" y="7"/>
			<point x="831" y="-3" type="curve"/>
			<point x="650" y="-16"/>
			<point x="321" y="-4"/>
			<point x="233" y="20" type="curve"/>
			<point x="209" y="26"/>
			<point x="170" y="53"/>
			<point x="141" y="83" type="curve"/>
			<point x="119" y="106" type="line"/>
			<point x="128" y="115" type="line"/>
			<point x="135" y="123"/>
			<point x="140" y="124"/>
			<point x="148" y="121" type="curve"/>
			<point x="154" y="118"/>
			<point x="180" y="113"/>
			<point x="205" y="108" type="curve"/>
			<point x="244" y="102"/>
			<point x="281" y="101"/>
			<point x="478" y="102" type="curve"/>
			<point x="603" y="102"/>
			<point x="799" y="103"/>
			<point x="913" y="103" type="curve"/>
			<point x="1120" y="104" type="line"/>
			<point x="1163" y="91" type="line"/>
			<point x="1248" y="66"/>
			<point x="1342" y="11"/>
			<point x="1335" y="-10" type="curve"/>
			<point x="1332" y="-16"/>
			<point x="1326" y="-19"/>
		</contour>
		<contour>
			<point x="1085" y="158" type="curve"/>
			<point x="1085" y="158" type="line"/>
			<point x="1047" y="162"/>
			<point x="1017" y="171"/>
			<point x="996" y="186" type="curve"/>
			<point x="983" y="195"/>
			<point x="965" y="230"/>
			<point x="952" y="269" type="curve"/>
			<point x="944" y="293"/>
			<point x="941" y="297"/>
			<point x="930" y="299" type="curve"/>
			<point x="923" y="301"/>
			<point x="920" y="303"/>
			<point x="920" y="308" type="curve"/>
			<point x="920" y="315"/>
			<point x="924" y="315"/>
			<point x="958" y="314" type="curve"/>
			<point x="1017" y="310"/>
			<point x="1044" y="305"/>
			<point x="1061" y="292" type="curve"/>
			<point x="1090" y="272"/>
			<point x="1101" y="254"/>
			<point x="1114" y="208" type="curve"/>
			<point x="1120" y="188"/>
			<point x="1121" y="188"/>
			<point x="1147" y="182" type="curve"/>
			<point x="1164" y="178"/>
			<point x="1165" y="178"/>
			<point x="1165" y="174" type="curve"/>
			<point x="1165" y="170"/>
			<point x="1163" y="168"/>
			<point x="1153" y="164" type="curve"/>
			<point x="1141" y="158" type="line"/>
			<point x="1116" y="157" type="line"/>
			<point x="1103" y="157"/>
			<point x="1088" y="157"/>
		</contour>
		<contour>
			<point x="858" y="165" type="curve"/>
			<point x="858" y="165" type="line"/>
			<point x="819" y="171"/>
			<point x="783" y="186"/>
			<point x="770" y="203" type="curve"/>
			<point x="760" y="216"/>
			<point x="748" y="242"/>
			<point x="740" y="269" type="curve"/>
			<point x="731" y="294"/>
			<point x="731" y="294"/>
			<point x="724" y="298" type="curve"/>
			<point x="720" y="300"/>
			<point x="715" y="302"/>
			<point x="714" y="302" type="curve"/>
			<point x="712" y="302"/>
			<point x="710" y="303"/>
			<point x="708" y="305" type="curve"/>
			<point x="705" y="309"/>
			<point x="705" y="309"/>
			<point x="709" y="312" type="curve"/>
			<point x="712" y="315"/>
			<point x="715" y="315"/>
			<point x="733" y="314" type="curve"/>
			<point x="781" y="312"/>
			<point x="819" y="307"/>
			<point x="838" y="300" type="curve"/>
			<point x="848" y="296"/>
			<point x="864" y="283"/>
			<point x="873" y="272" type="curve"/>
			<point x="882" y="260"/>
			<point x="892" y="239"/>
			<point x="900" y="216" type="curve"/>
			<point x="908" y="193"/>
			<point x="909" y="193"/>
			<point x="934" y="187" type="curve"/>
			<point x="943" y="186"/>
			<point x="951" y="183"/>
			<point x="952" y="182" type="curve"/>
			<point x="954" y="179"/>
			<point x="951" y="175"/>
			<point x="940" y="170" type="curve"/>
			<point x="930" y="164"/>
			<point x="930" y="164"/>
			<point x="900" y="164" type="curve"/>
			<point x="883" y="164"/>
			<point x="865" y="165"/>
		</contour>
	</outline>
</glyph>
<glyph name="ano2" format="2">
	<advance width="1522"/>
	<outline>
		<contour>
			<point x="1441" y="1" type="curve"/>
			<point x="1441" y="1" type="line"/>
			<point x="1430" y="2"/>
			<point x="1396" y="6"/>
			<point x="1368" y="9" type="curve"/>
			<point x="1231" y="18"/>
			<point x="1151" y="20"/>
			<point x="1049" y="16" type="curve"/>
			<point x="932" y="10"/>
			<point x="872" y="9"/>
			<point x="710" y="3" type="curve"/>
			<point x="582" y="1"/>
			<point x="541" y="1"/>
			<point x="507" y="3" type="curve"/>
			<point x="377" y="15"/>
			<point x="287" y="23"/>
			<point x="251" y="31" type="curve"/>
			<point x="228" y="35"/>
			<point x="196" y="54"/>
			<point x="163" y="80" type="curve"/>
			<point x="142" y="96"/>
			<point x="141" y="98"/>
			<point x="141" y="107" type="curve"/>
			<point x="140" y="118"/>
			<point x="141" y="119"/>
			<point x="147" y="120" type="curve"/>
			<point x="149" y="120"/>
			<point x="166" y="119"/>
			<point x="182" y="114" type="curve"/>
			<point x="250" y="101"/>
			<point x="265" y="100"/>
			<point x="419" y="99" type="curve"/>
			<point x="500" y="98"/>
			<point x="638" y="99"/>
			<point x="738" y="101" type="curve"/>
			<point x="832" y="102"/>
			<point x="982" y="104"/>
			<point x="1069" y="104" type="curve"/>
			<point x="1212" y="104"/>
			<point x="1231" y="104"/>
			<point x="1254" y="100" type="curve"/>
			<point x="1320" y="88"/>
			<point x="1415" y="60"/>
			<point x="1466" y="34" type="curve"/>
			<point x="1484" y="24"/>
			<point x="1495" y="10"/>
			<point x="1492" y="1" type="curve"/>
			<point x="1488" y="-4"/>
			<point x="1478" y="-4"/>
		</contour>
		<contour>
			<point x="1115" y="203" type="curve"/>
			<point x="1115" y="203" type="line"/>
			<point x="1100" y="203"/>
			<point x="1094" y="203"/>
			<point x="1075" y="206" type="curve"/>
			<point x="1063" y="207"/>
			<point x="1055" y="210"/>
			<point x="1046" y="214" type="curve"/>
			<point x="1026" y="225"/>
			<point x="1027" y="229"/>
			<point x="1008" y="252" type="curve"/>
			<point x="999" y="266"/>
			<point x="1001" y="259"/>
			<point x="991" y="288" type="curve"/>
			<point x="989" y="294"/>
			<point x="986" y="300"/>
			<point x="986" y="301" type="curve"/>
			<point x="986" y="306"/>
			<point x="977" y="322"/>
			<point x="968" y="331" type="curve"/>
			<point x="958" y="341"/>
			<point x="955" y="349"/>
			<point x="958" y="357" type="curve"/>
			<point x="961" y="366"/>
			<point x="968" y="371"/>
			<point x="982" y="370" type="curve"/>
			<point x="1013" y="370"/>
			<point x="1057" y="367"/>
			<point x="1063" y="366" type="curve"/>
			<point x="1069" y="365"/>
			<point x="1084" y="353"/>
			<point x="1093" y="341" type="curve"/>
			<point x="1095" y="338"/>
			<point x="1096" y="337"/>
			<point x="1098" y="332" type="curve"/>
			<point x="1100" y="329"/>
			<point x="1103" y="322"/>
			<point x="1105" y="318" type="curve"/>
			<point x="1108" y="312"/>
			<point x="1114" y="298"/>
			<point x="1121" y="285" type="curve"/>
			<point x="1135" y="260"/>
			<point x="1140" y="254"/>
			<point x="1157" y="252" type="curve"/>
			<point x="1162" y="251"/>
			<point x="1166" y="250"/>
			<point x="1171" y="246" type="curve"/>
			<point x="1177" y="243"/>
			<point x="1178" y="242"/>
			<point x="1178" y="235" type="curve"/>
			<point x="1178" y="227"/>
			<point x="1174" y="222"/>
			<point x="1155" y="212" type="curve"/>
			<point x="1138" y="205"/>
			<point x="1135" y="204"/>
		</contour>
		<contour>
			<point x="1325" y="203" type="curve"/>
			<point x="1325" y="203" type="line"/>
			<point x="1310" y="203"/>
			<point x="1304" y="203"/>
			<point x="1285" y="206" type="curve"/>
			<point x="1273" y="207"/>
			<point x="1265" y="210"/>
			<point x="1256" y="214" type="curve"/>
			<point x="1236" y="225"/>
			<point x="1237" y="229"/>
			<point x="1218" y="252" type="curve"/>
			<point x="1209" y="266"/>
			<point x="1211" y="259"/>
			<point x="1201" y="288" type="curve"/>
			<point x="1199" y="294"/>
			<point x="1196" y="300"/>
			<point x="1196" y="301" type="curve"/>
			<point x="1196" y="306"/>
			<point x="1187" y="322"/>
			<point x="1178" y="331" type="curve"/>
			<point x="1168" y="341"/>
			<point x="1165" y="349"/>
			<point x="1168" y="357" type="curve"/>
			<point x="1171" y="366"/>
			<point x="1178" y="371"/>
			<point x="1192" y="370" type="curve"/>
			<point x="1223" y="370"/>
			<point x="1267" y="367"/>
			<point x="1273" y="366" type="curve"/>
			<point x="1279" y="365"/>
			<point x="1294" y="353"/>
			<point x="1303" y="341" type="curve"/>
			<point x="1305" y="338"/>
			<point x="1306" y="337"/>
			<point x="1308" y="332" type="curve"/>
			<point x="1310" y="329"/>
			<point x="1313" y="322"/>
			<point x="1315" y="318" type="curve"/>
			<point x="1318" y="312"/>
			<point x="1324" y="298"/>
			<point x="1331" y="285" type="curve"/>
			<point x="1345" y="260"/>
			<point x="1350" y="254"/>
			<point x="1367" y="252" type="curve"/>
			<point x="1372" y="251"/>
			<point x="1376" y="250"/>
			<point x="1381" y="246" type="curve"/>
			<point x="1387" y="243"/>
			<point x="1388" y="242"/>
			<point x="1388" y="235" type="curve"/>
			<point x="1388" y="227"/>
			<point x="1384" y="222"/>
			<point x="1365" y="212" type="curve"/>
			<point x="1348" y="205"/>
			<point x="1345" y="204"/>
		</contour>
		<contour>
			<point x="383" y="205" type="curve"/>
			<point x="383" y="205" type="line"/>
			<point x="260" y="208"/>
			<point x="176" y="229"/>
			<point x="96" y="278" type="curve"/>
			<point x="52" y="304"/>
			<point x="30" y="326"/>
			<point x="30" y="348" type="curve"/>
			<point x="30" y="365"/>
			<point x="40" y="375"/>
			<point x="61" y="382" type="curve"/>
			<point x="78" y="386"/>
			<point x="120" y="388"/>
			<point x="151" y="385" type="curve"/>
			<point x="214" y="381"/>
			<point x="256" y="367"/>
			<point x="290" y="342" type="curve"/>
			<point x="300" y="334"/>
			<point x="301" y="330"/>
			<point x="304" y="322" type="curve"/>
			<point x="307" y="310" type="line"/>
			<point x="296" y="311" type="line"/>
			<point x="290" y="312"/>
			<point x="265" y="314"/>
			<point x="240" y="316" type="curve"/>
			<point x="192" y="321"/>
			<point x="182" y="320"/>
			<point x="170" y="310" type="curve"/>
			<point x="163" y="305"/>
			<point x="162" y="302"/>
			<point x="168" y="290" type="curve"/>
			<point x="175" y="276"/>
			<point x="185" y="271"/>
			<point x="223" y="265" type="curve"/>
			<point x="270" y="257"/>
			<point x="300" y="257"/>
			<point x="404" y="267" type="curve"/>
			<point x="487" y="275"/>
			<point x="529" y="278"/>
			<point x="656" y="282" type="curve"/>
			<point x="719" y="285"/>
			<point x="731" y="284"/>
			<point x="764" y="275" type="curve"/>
			<point x="820" y="261"/>
			<point x="898" y="222"/>
			<point x="898" y="207" type="curve"/>
			<point x="898" y="204"/>
			<point x="820" y="204"/>
			<point x="766" y="208" type="curve"/>
			<point x="718" y="213"/>
			<point x="644" y="212"/>
			<point x="558" y="205" type="curve"/>
			<point x="506" y="202"/>
			<point x="481" y="202"/>
		</contour>
	</outline>
</glyph>
<glyph name="antikenoma" format="2">
	<advance width="1043"/>
	<outline>
		<contour>
			<point x="1015" y="140" type="curve"/>
			<point x="1015" y="140" type="line"/>
			<point x="988" y="126"/>
			<point x="932" y="128"/>
			<point x="910" y="144" type="curve"/>
			<point x="882" y="165"/>
			<point x="898" y="193"/>
			<point x="935" y="188" type="curve"/>
			<point x="994" y="180"/>
			<point x="952" y="223"/>
			<point x="878" y="247" type="curve"/>
			<point x="819" y="266"/>
			<point x="369" y="275"/>
			<point x="152" y="263" type="curve"/>
			<point x="45" y="257"/>
			<point x="11" y="258"/>
			<point x="3" y="267" type="curve"/>
			<point x="-28" y="302"/>
			<point x="168" y="324"/>
			<point x="520" y="324" type="curve"/>
			<point x="741" y="324"/>
			<point x="816" y="320"/>
			<point x="877" y="308" type="curve"/>
			<point x="968" y="290"/>
			<point x="1031" y="258"/>
			<point x="1040" y="230" type="curve"/>
			<point x="1050" y="200"/>
			<point x="1036" y="151"/>
		</contour>
	</outline>
</glyph>
<glyph name="doubleapostrophos" format="2">
	<advance width="1631"/>
	<outline>
		<contour>
			<point x="587" y="-24" type="curve"/>
			<point x="587" y="-24" type="line"/>
			<point x="543" y="-15"/>
			<point x="505" y="-8"/>
			<point x="505" y="-7" type="curve"/>
			<point x="504" y="-7"/>
			<point x="503" y="-3"/>
			<point x="503" y="1" type="curve"/>
			<point x="503" y="6"/>
			<point x="505" y="10"/>
			<point x="519" y="21" type="curve"/>
			<point x="528" y="29"/>
			<point x="539" y="39"/>
			<point x="543" y="43" type="curve"/>
			<point x="565" y="73"/>
			<point x="534" y="108"/>
			<point x="465" y="132" type="curve"/>
			<point x="441" y="141"/>
			<point x="345" y="165"/>
			<point x="310" y="171" type="curve"/>
			<point x="271" y="178"/>
			<point x="238" y="183"/>
			<point x="182" y="186" type="curve"/>
			<point x="132" y="189"/>
			<point x="46" y="196"/>
			<point x="38" y="198" type="curve"/>
			<point x="33" y="199"/>
			<point x="28" y="209"/>
			<point x="30" y="212" type="curve"/>
			<point x="39" y="228"/>
			<point x="95" y="238"/>
			<point x="173" y="241" type="curve"/>
			<point x="206" y="243"/>
			<point x="219" y="242"/>
			<point x="306" y="236" type="curve"/>
			<point x="351" y="232"/>
			<point x="409" y="222"/>
			<point x="522" y="195" type="curve"/>
			<point x="659" y="164"/>
			<point x="743" y="110"/>
			<point x="759" y="44" type="curve"/>
			<point x="764" y="18"/>
			<point x="759" y="-7"/>
			<point x="743" y="-22" type="curve"/>
			<point x="719" y="-42"/>
			<point x="700" y="-43"/>
		</contour>
		<contour>
			<point x="1427" y="-274" type="curve"/>
			<point x="1427" y="-274" type="line"/>
			<point x="1383" y="-265"/>
			<point x="1345" y="-258"/>
			<point x="1345" y="-257" type="curve"/>
			<point x="1344" y="-257"/>
			<point x="1343" y="-253"/>
			<point x="1343" y="-249" type="curve"/>
			<point x="1343" y="-244"/>
			<point x="1345" y="-240"/>
			<point x="1359" y="-229" type="curve"/>
			<point x="1368" y="-221"/>
			<point x="1379" y="-211"/>
			<point x="1383" y="-207" type="curve"/>
			<point x="1405" y="-177"/>
			<point x="1374" y="-142"/>
			<point x="1305" y="-118" type="curve"/>
			<point x="1281" y="-109"/>
			<point x="1185" y="-85"/>
			<point x="1150" y="-79" type="curve"/>
			<point x="1111" y="-72"/>
			<point x="1078" y="-67"/>
			<point x="1022" y="-64" type="curve"/>
			<point x="972" y="-61"/>
			<point x="886" y="-54"/>
			<point x="878" y="-52" type="curve"/>
			<point x="873" y="-51"/>
			<point x="868" y="-41"/>
			<point x="870" y="-38" type="curve"/>
			<point x="879" y="-22"/>
			<point x="935" y="-12"/>
			<point x="1013" y="-9" type="curve"/>
			<point x="1046" y="-7"/>
			<point x="1059" y="-8"/>
			<point x="1146" y="-14" type="curve"/>
			<point x="1191" y="-18"/>
			<point x="1249" y="-28"/>
			<point x="1362" y="-55" type="curve"/>
			<point x="1499" y="-86"/>
			<point x="1583" y="-140"/>
			<point x="1599" y="-206" type="curve"/>
			<point x="1604" y="-232"/>
			<point x="1599" y="-257"/>
			<point x="1583" y="-272" type="curve"/>
			<point x="1559" y="-292"/>
			<point x="1540" y="-293"/>
		</contour>
	</outline>
</glyph>
<glyph name="hypsele" format="2">
	<advance width="492"/>
	<outline>
		<contour>
			<point x="215" y="201" type="curve"/>
			<point x="215" y="201" type="line"/>
			<point x="30" y="290" type="line"/>
			<point x="74" y="297" type="line" smooth="yes"/>
			<point x="98" y="301"/>
			<point x="139" y="317"/>
			<point x="168" y="334" type="curve"/>
			<point x="242" y="377"/>
			<point x="269" y="435"/>
			<point x="281" y="573" type="curve"/>
			<point x="291" y="692"/>
			<point x="315" y="752"/>
			<point x="358" y="774" type="curve"/>
			<point x="393" y="792"/>
			<point x="415" y="792"/>
			<point x="441" y="773" type="curve"/>
			<point x="465" y="756"/>
			<point x="470" y="708"/>
			<point x="450" y="696" type="curve"/>
			<point x="419" y="678"/>
			<point x="407" y="639"/>
			<point x="402" y="541" type="curve"/>
			<point x="399" y="485"/>
			<point x="392" y="427"/>
			<point x="386" y="412" type="curve"/>
			<point x="362" y="352"/>
			<point x="277" y="286"/>
			<point x="196" y="269" type="curve"/>
			<point x="162" y="262" type="line"/>
			<point x="205" y="249" type="line" smooth="yes"/>
			<point x="256" y="234"/>
			<point x="322" y="197"/>
			<point x="323" y="184" type="curve"/>
			<point x="325" y="164"/>
			<point x="282" y="169"/>
		</contour>
	</outline>
</glyph>
<glyph name="jumptwo" format="2">
	<advance width="1284"/>
	<outline>
		<contour>
			<point x="1240" y="-15" type="curve"/>
			<point x="1240" y="-15" type="line"/>
			<point x="1237" y="-11"/>
			<point x="1149" y="-3"/>
			<point x="1056" y="3" type="curve"/>
			<point x="964" y="9"/>
			<point x="885" y="7"/>
			<point x="749" y="-3" type="curve"/>
			<point x="568" y="-16"/>
			<point x="239" y="-4"/>
			<point x="151" y="20" type="curve"/>
			<point x="127" y="26"/>
			<point x="88" y="53"/>
			<point x="59" y="83" type="curve"/>
			<point x="37" y="106" type="line"/>
			<point x="46" y="115" type="line"/>
			<point x="53" y="123"/>
			<point x="58" y="124"/>
			<point x="66" y="121" type="curve"/>
			<point x="72" y="118"/>
			<point x="98" y="113"/>
			<point x="123" y="108" type="curve"/>
			<point x="162" y="102"/>
			<point x="199" y="101"/>
			<point x="396" y="102" type="curve"/>
			<point x="521" y="102"/>
			<point x="717" y="103"/>
			<point x="831" y="103" type="curve"/>
			<point x="1038" y="104" type="line"/>
			<point x="1081" y="91" type="line"/>
			<point x="1166" y="66"/>
			<point x="1260" y="11"/>
			<point x="1253" y="-10" type="curve"/>
			<point x="1250" y="-16"/>
			<point x="1244" y="-19"/>
		</contour>
		<contour>
			<point x="750" y="198" type="curve"/>
			<point x="750" y="198" type="line"/>
			<point x="712" y="202"/>
			<point x="682" y="211"/>
			<point x="661" y="226" type="curve"/>
			<point x="648" y="235"/>
			<point x="630" y="270"/>
			<point x="617" y="309" type="curve"/>
			<point x="609" y="333"/>
			<point x="606" y="337"/>
			<point x="595" y="339" type="curve"/>
			<point x="588" y="341"/>
			<point x="585" y="343"/>
			<point x="585" y="348" type="curve"/>
			<point x="585" y="355"/>
			<point x="589" y="355"/>
			<point x="623" y="354" type="curve"/>
			<point x="682" y="350"/>
			<point x="709" y="345"/>
			<point x="726" y="332" type="curve"/>
			<point x="755" y="312"/>
			<point x="766" y="294"/>
			<point x="779" y="248" type="curve"/>
			<point x="785" y="228"/>
			<point x="786" y="228"/>
			<point x="812" y="222" type="curve"/>
			<point x="829" y="218"/>
			<point x="830" y="218"/>
			<point x="830" y="214" type="curve"/>
			<point x="830" y="210"/>
			<point x="828" y="208"/>
			<point x="818" y="204" type="curve"/>
			<point x="806" y="198" type="line"/>
			<point x="781" y="197" type="line"/>
			<point x="768" y="197"/>
			<point x="753" y="197"/>
		</contour>
		<contour>
			<point x="523" y="205" type="curve"/>
			<point x="523" y="205" type="line"/>
			<point x="484" y="211"/>
			<point x="448" y="226"/>
			<point x="435" y="243" type="curve"/>
			<point x="425" y="256"/>
			<point x="413" y="282"/>
			<point x="405" y="309" type="curve"/>
			<point x="396" y="334"/>
			<point x="396" y="334"/>
			<point x="389" y="338" type="curve"/>
			<point x="385" y="340"/>
			<point x="380" y="342"/>
			<point x="379" y="342" type="curve"/>
			<point x="377" y="342"/>
			<point x="375" y="343"/>
			<point x="373" y="345" type="curve"/>
			<point x="370" y="349"/>
			<point x="370" y="349"/>
			<point x="374" y="352" type="curve"/>
			<point x="377" y="355"/>
			<point x="380" y="355"/>
			<point x="398" y="354" type="curve"/>
			<point x="446" y="352"/>
			<point x="484" y="347"/>
			<point x="503" y="340" type="curve"/>
			<point x="513" y="336"/>
			<point x="529" y="323"/>
			<point x="538" y="312" type="curve"/>
			<point x="547" y="300"/>
			<point x="557" y="279"/>
			<point x="565" y="256" type="curve"/>
			<point x="573" y="233"/>
			<point x="574" y="233"/>
			<point x="599" y="227" type="curve"/>
			<point x="608" y="226"/>
			<point x="616" y="223"/>
			<point x="617" y="222" type="curve"/>
			<point x="619" y="219"/>
			<point x="616" y="215"/>
			<point x="605" y="210" type="curve"/>
			<point x="595" y="204"/>
			<point x="595" y="204"/>
			<point x="565" y="204" type="curve"/>
			<point x="548" y="204"/>
			<point x="530" y="205"/>
		</contour>
	</outline>
</glyph>
<glyph name="martyria" format="2">
	<advance width="680"/>
	<outline>
		<contour>
			<point x="156" y="-696" type="curve"/>
			<point x="156" y="-696" type="line"/>
			<point x="139" y="-692"/>
			<point x="121" y="-685"/>
			<point x="113" y="-677" type="curve"/>
			<point x="110" y="-675"/>
			<point x="105" y="-669"/>
			<point x="103" y="-664" type="curve"/>
			<point x="100" y="-657"/>
			<point x="99" y="-654"/>
			<point x="100" y="-637" type="curve"/>
			<point x="102" y="-608"/>
			<point x="110" y="-589"/>
			<point x="132" y="-563" type="curve"/>
			<point x="156" y="-535"/>
			<point x="209" y="-502"/>
			<point x="263" y="-481" type="curve"/>
			<point x="272" y="-478"/>
			<point x="278" y="-474"/>
			<point x="278" y="-473" type="curve"/>
			<point x="278" y="-472"/>
			<point x="271" y="-463"/>
			<point x="264" y="-452" type="curve"/>
			<point x="236" y="-413"/>
			<point x="211" y="-369"/>
			<point x="205" y="-349" type="curve"/>
			<point x="201" y="-335"/>
			<point x="201" y="-319"/>
			<point x="205" y="-307" type="curve"/>
			<point x="215" y="-280"/>
			<point x="230" y="-261"/>
			<point x="247" y="-257" type="curve"/>
			<point x="277" y="-249"/>
			<point x="313" y="-247"/>
			<point x="331" y="-253" type="curve"/>
			<point x="368" y="-264"/>
			<point x="401" y="-290"/>
			<point x="427" y="-331" type="curve"/>
			<point x="452" y="-367"/>
			<point x="459" y="-397"/>
			<point x="461" y="-465" type="curve"/>
			<point x="461" y="-500"/>
			<point x="461" y="-508"/>
			<point x="458" y="-528" type="curve"/>
			<point x="456" y="-541"/>
			<point x="455" y="-552"/>
			<point x="455" y="-552" type="curve"/>
			<point x="456" y="-553"/>
			<point x="466" y="-553"/>
			<point x="479" y="-553" type="curve"/>
			<point x="501" y="-553"/>
			<point x="502" y="-554"/>
			<point x="515" y="-560" type="curve"/>
			<point x="522" y="-563"/>
			<point x="532" y="-570"/>
			<point x="537" y="-574" type="curve"/>
			<point x="565" y="-599"/>
			<point x="585" y="-645"/>
			<point x="579" y="-673" type="curve"/>
			<point x="577" y="-685"/>
			<point x="572" y="-694"/>
			<point x="567" y="-694" type="curve"/>
			<point x="565" y="-694"/>
			<point x="554" y="-690"/>
			<point x="541" y="-686" type="curve"/>
			<point x="518" y="-678" type="line"/>
			<point x="518" y="-669" type="line"/>
			<point x="519" y="-634"/>
			<point x="519" y="-628"/>
			<point x="516" y="-621" type="curve"/>
			<point x="507" y="-597"/>
			<point x="488" y="-587"/>
			<point x="448" y="-585" type="curve"/>
			<point x="424" y="-584" type="line"/>
			<point x="425" y="-579" type="line"/>
			<point x="431" y="-537"/>
			<point x="419" y="-477"/>
			<point x="391" y="-406" type="curve"/>
			<point x="374" y="-363"/>
			<point x="366" y="-349"/>
			<point x="355" y="-338" type="curve"/>
			<point x="335" y="-320"/>
			<point x="313" y="-308"/>
			<point x="304" y="-310" type="curve"/>
			<point x="296" y="-312"/>
			<point x="287" y="-319"/>
			<point x="280" y="-329" type="curve"/>
			<point x="273" y="-339"/>
			<point x="273" y="-340"/>
			<point x="273" y="-357" type="curve"/>
			<point x="273" y="-371"/>
			<point x="274" y="-378"/>
			<point x="277" y="-386" type="curve"/>
			<point x="284" y="-407"/>
			<point x="304" y="-437"/>
			<point x="339" y="-480" type="curve"/>
			<point x="360" y="-505" type="line"/>
			<point x="364" y="-526" type="line"/>
			<point x="367" y="-546"/>
			<point x="367" y="-547"/>
			<point x="364" y="-561" type="curve"/>
			<point x="356" y="-597"/>
			<point x="344" y="-621"/>
			<point x="327" y="-638" type="curve"/>
			<point x="304" y="-661"/>
			<point x="261" y="-686"/>
			<point x="231" y="-694" type="curve"/>
			<point x="210" y="-699"/>
			<point x="177" y="-700"/>
		</contour>
		<contour>
			<point x="241" y="-655" type="curve"/>
			<point x="241" y="-655" type="line"/>
			<point x="268" y="-643"/>
			<point x="296" y="-602"/>
			<point x="314" y="-550" type="curve"/>
			<point x="323" y="-521"/>
			<point x="321" y="-511"/>
			<point x="306" y="-511" type="curve"/>
			<point x="290" y="-511"/>
			<point x="257" y="-541"/>
			<point x="226" y="-582" type="curve"/>
			<point x="210" y="-602" type="line"/>
			<point x="207" y="-624" type="line"/>
			<point x="202" y="-648"/>
			<point x="203" y="-653"/>
			<point x="212" y="-659" type="curve"/>
			<point x="218" y="-663"/>
			<point x="227" y="-662"/>
		</contour>
		<contour>
			<point x="363" y="-221" type="curve"/>
			<point x="363" y="-221" type="line"/>
			<point x="355" y="-220"/>
			<point x="347" y="-219"/>
			<point x="346" y="-218" type="curve"/>
			<point x="343" y="-216"/>
			<point x="344" y="-209"/>
			<point x="348" y="-206" type="curve"/>
			<point x="350" y="-205"/>
			<point x="352" y="-201"/>
			<point x="353" y="-196" type="curve"/>
			<point x="355" y="-180"/>
			<point x="339" y="-159"/>
			<point x="305" y="-135" type="curve"/>
			<point x="286" y="-122"/>
			<point x="285" y="-118"/>
			<point x="300" y="-118" type="curve"/>
			<point x="320" y="-118"/>
			<point x="348" y="-131"/>
			<point x="378" y="-152" type="curve"/>
			<point x="402" y="-169"/>
			<point x="414" y="-201"/>
			<point x="403" y="-218" type="curve"/>
			<point x="400" y="-222"/>
			<point x="399" y="-223"/>
			<point x="389" y="-222" type="curve"/>
			<point x="383" y="-222"/>
			<point x="371" y="-222"/>
		</contour>
		<contour>
			<point x="272" y="-208" type="curve"/>
			<point x="272" y="-208" type="line"/>
			<point x="261" y="-206"/>
			<point x="255" y="-204"/>
			<point x="252" y="-201" type="curve"/>
			<point x="250" y="-198"/>
			<point x="250" y="-196"/>
			<point x="255" y="-189" type="curve"/>
			<point x="262" y="-178"/>
			<point x="261" y="-175"/>
			<point x="250" y="-163" type="curve"/>
			<point x="240" y="-152"/>
			<point x="230" y="-146"/>
			<point x="210" y="-135" type="curve"/>
			<point x="202" y="-130"/>
			<point x="195" y="-126"/>
			<point x="195" y="-125" type="curve"/>
			<point x="195" y="-123"/>
			<point x="197" y="-121"/>
			<point x="200" y="-119" type="curve"/>
			<point x="204" y="-117"/>
			<point x="206" y="-117"/>
			<point x="228" y="-123" type="curve"/>
			<point x="256" y="-131"/>
			<point x="284" y="-143"/>
			<point x="296" y="-154" type="curve"/>
			<point x="308" y="-165"/>
			<point x="314" y="-177"/>
			<point x="314" y="-191" type="curve"/>
			<point x="314" y="-207"/>
			<point x="310" y="-210"/>
			<point x="293" y="-210" type="curve"/>
			<point x="286" y="-210"/>
			<point x="277" y="-209"/>
		</contour>
		<contour>
			<point x="167" y="-69" type="line"/>
			<point x="152" y="-55" type="line"/>
			<point x="135" y="-39"/>
			<point x="133" y="-34"/>
			<point x="142" y="-27" type="curve"/>
			<point x="146" y="-23"/>
			<point x="152" y="-22"/>
			<point x="176" y="-21" type="curve"/>
			<point x="204" y="-20" type="line"/>
			<point x="249" y="91" type="line"/>
			<point x="273" y="152"/>
			<point x="294" y="204"/>
			<point x="296" y="208" type="curve"/>
			<point x="298" y="212"/>
			<point x="302" y="214"/>
			<point x="307" y="214" type="curve"/>
			<point x="314" y="214"/>
			<point x="316" y="212"/>
			<point x="322" y="201" type="curve"/>
			<point x="325" y="194"/>
			<point x="337" y="161"/>
			<point x="348" y="128" type="curve"/>
			<point x="385" y="14"/>
			<point x="396" y="-15"/>
			<point x="415" y="-47" type="curve"/>
			<point x="420" y="-55"/>
			<point x="423" y="-64"/>
			<point x="423" y="-66" type="curve"/>
			<point x="422" y="-69"/>
			<point x="399" y="-69"/>
			<point x="294" y="-69" type="curve"/>
		</contour>
		<contour>
			<point x="324" y="-4" type="curve"/>
			<point x="324" y="-4" type="line"/>
			<point x="325" y="-2"/>
			<point x="309" y="88"/>
			<point x="307" y="89" type="curve"/>
			<point x="303" y="90"/>
			<point x="265" y="7"/>
			<point x="265" y="-1" type="curve"/>
			<point x="265" y="-8" type="line"/>
			<point x="294" y="-5" type="line"/>
			<point x="309" y="-5"/>
			<point x="323" y="-4"/>
		</contour>
	</outline>
</glyph>
<glyph name="petaste" format="2">
	<advance width="1301"/>
	<outline>
		<contour>
			<point x="684" y="-109" type="curve"/>
			<point x="684" y="-109" type="line"/>
			<point x="625" y="-104"/>
			<point x="558" y="-93"/>
			<point x="470" y="-75" type="curve"/>
			<point x="413" y="-65"/>
			<point x="402" y="-62"/>
			<point x="366" y="-49" type="curve"/>
			<point x="206" y="8"/>
			<point x="109" y="54"/>
			<point x="71" y="94" type="curve"/>
			<point x="39" y="128"/>
			<point x="44" y="152"/>
			<point x="90" y="160" type="curve"/>
			<point x="115" y="164"/>
			<point x="220" y="164"/>
			<point x="265" y="158" type="curve"/>
			<point x="327" y="153"/>
			<point x="353" y="147"/>
			<point x="364" y="138" type="curve"/>
			<point x="372" y="132"/>
			<point x="372" y="126"/>
			<point x="365" y="119" type="curve"/>
			<point x="363" y="117"/>
			<point x="357" y="117"/>
			<point x="332" y="115" type="curve"/>
			<point x="302" y="113"/>
			<point x="289" y="111"/>
			<point x="286" y="107" type="curve"/>
			<point x="284" y="104"/>
			<point x="292" y="90"/>
			<point x="303" y="79" type="curve"/>
			<point x="318" y="60"/>
			<point x="346" y="40"/>
			<point x="380" y="25" type="curve"/>
			<point x="389" y="21"/>
			<point x="404" y="14"/>
			<point x="413" y="10" type="curve"/>
			<point x="439" y="-1"/>
			<point x="477" y="-14"/>
			<point x="525" y="-27" type="curve"/>
			<point x="625" y="-52"/>
			<point x="695" y="-59"/>
			<point x="790" y="-57" type="curve"/>
			<point x="851" y="-57"/>
			<point x="881" y="-52"/>
			<point x="915" y="-36" type="curve"/>
			<point x="934" y="-27"/>
			<point x="943" y="-17"/>
			<point x="950" y="-1" type="curve"/>
			<point x="957" y="11"/>
			<point x="958" y="13"/>
			<point x="958" y="28" type="curve"/>
			<point x="958" y="39"/>
			<point x="956" y="50"/>
			<point x="954" y="56" type="curve"/>
			<point x="946" y="81"/>
			<point x="923" y="105"/>
			<point x="890" y="122" type="curve"/>
			<point x="873" y="128"/>
			<point x="861" y="140"/>
			<point x="861" y="146" type="curve"/>
			<point x="861" y="151"/>
			<point x="870" y="155"/>
			<point x="883" y="157" type="curve"/>
			<point x="896" y="160"/>
			<point x="909" y="161"/>
			<point x="962" y="161" type="curve"/>
			<point x="1026" y="161" type="line"/>
			<point x="1044" y="157" type="line"/>
			<point x="1086" y="143"/>
			<point x="1114" y="123"/>
			<point x="1126" y="100" type="curve"/>
			<point x="1133" y="88"/>
			<point x="1135" y="46"/>
			<point x="1133" y="26" type="curve"/>
			<point x="1126" y="-11"/>
			<point x="1098" y="-44"/>
			<point x="1054" y="-66" type="curve"/>
			<point x="1044" y="-70"/>
			<point x="1036" y="-75"/>
			<point x="1035" y="-77" type="curve"/>
			<point x="1029" y="-85"/>
			<point x="974" y="-96"/>
			<point x="890" y="-106" type="curve"/>
			<point x="854" y="-111"/>
			<point x="845" y="-112"/>
			<point x="775" y="-111" type="curve"/>
			<point x="734" y="-111"/>
			<point x="693" y="-110"/>
		</contour>
		<contour>
			<point x="1024" y="230" type="curve"/>
			<point x="1024" y="230" type="line"/>
			<point x="1006" y="237"/>
			<point x="986" y="245"/>
			<point x="938" y="269" type="curve"/>
			<point x="896" y="289" type="line"/>
			<point x="872" y="290" type="line"/>
			<point x="833" y="291"/>
			<point x="823" y="296"/>
			<point x="821" y="311" type="curve"/>
			<point x="820" y="330"/>
			<point x="833" y="343"/>
			<point x="866" y="353" type="curve"/>
			<point x="903" y="365"/>
			<point x="986" y="407"/>
			<point x="1015" y="429" type="curve"/>
			<point x="1055" y="458"/>
			<point x="1099" y="539"/>
			<point x="1117" y="621" type="curve"/>
			<point x="1132" y="685"/>
			<point x="1150" y="751"/>
			<point x="1162" y="784" type="curve"/>
			<point x="1171" y="806"/>
			<point x="1180" y="817"/>
			<point x="1199" y="826" type="curve"/>
			<point x="1215" y="833"/>
			<point x="1232" y="836"/>
			<point x="1245" y="832" type="curve"/>
			<point x="1254" y="830"/>
			<point x="1266" y="819"/>
			<point x="1270" y="811" type="curve"/>
			<point x="1272" y="807"/>
			<point x="1272" y="805"/>
			<point x="1268" y="800" type="curve"/>
			<point x="1248" y="776"/>
			<point x="1239" y="755"/>
			<point x="1236" y="725" type="curve"/>
			<point x="1232" y="703"/>
			<point x="1223" y="660"/>
			<point x="1212" y="625" type="curve"/>
			<point x="1199" y="578"/>
			<point x="1187" y="552"/>
			<point x="1171" y="534" type="curve"/>
			<point x="1166" y="527"/>
			<point x="1155" y="512"/>
			<point x="1146" y="497" type="curve"/>
			<point x="1117" y="447"/>
			<point x="1083" y="405"/>
			<point x="1054" y="378" type="curve"/>
			<point x="1039" y="365"/>
			<point x="1035" y="362"/>
			<point x="999" y="345" type="curve"/>
			<point x="978" y="335"/>
			<point x="958" y="327"/>
			<point x="954" y="326" type="curve"/>
			<point x="946" y="325"/>
			<point x="948" y="323"/>
			<point x="966" y="317" type="curve"/>
			<point x="992" y="307"/>
			<point x="1010" y="299"/>
			<point x="1022" y="284" type="curve"/>
			<point x="1042" y="263"/>
			<point x="1053" y="232"/>
			<point x="1043" y="227" type="curve"/>
			<point x="1038" y="225"/>
			<point x="1039" y="225"/>
		</contour>
		<contour>
			<point x="623" y="235" type="curve"/>
			<point x="623" y="235" type="line"/>
			<point x="584" y="241"/>
			<point x="548" y="256"/>
			<point x="535" y="273" type="curve"/>
			<point x="525" y="286"/>
			<point x="513" y="312"/>
			<point x="505" y="339" type="curve"/>
			<point x="496" y="364"/>
			<point x="496" y="364"/>
			<point x="489" y="368" type="curve"/>
			<point x="485" y="370"/>
			<point x="480" y="372"/>
			<point x="479" y="372" type="curve"/>
			<point x="477" y="372"/>
			<point x="475" y="373"/>
			<point x="473" y="375" type="curve"/>
			<point x="470" y="379"/>
			<point x="470" y="379"/>
			<point x="474" y="382" type="curve"/>
			<point x="477" y="385"/>
			<point x="480" y="385"/>
			<point x="498" y="384" type="curve"/>
			<point x="546" y="382"/>
			<point x="584" y="377"/>
			<point x="603" y="370" type="curve"/>
			<point x="613" y="366"/>
			<point x="629" y="353"/>
			<point x="638" y="342" type="curve"/>
			<point x="647" y="330"/>
			<point x="657" y="309"/>
			<point x="665" y="286" type="curve"/>
			<point x="673" y="263"/>
			<point x="674" y="263"/>
			<point x="699" y="257" type="curve"/>
			<point x="708" y="256"/>
			<point x="716" y="253"/>
			<point x="717" y="252" type="curve"/>
			<point x="719" y="249"/>
			<point x="716" y="245"/>
			<point x="705" y="240" type="curve"/>
			<point x="695" y="234"/>
			<point x="695" y="234"/>
			<point x="665" y="234" type="curve"/>
			<point x="648" y="234"/>
			<point x="630" y="235"/>
		</contour>
	</outline>
</glyph>
<glyph name="stacked" format="2">
	<advance width="1490"/>
	<outline>
		<contour>
			<point x="1156" y="-17" type="curve"/>
			<point x="1156" y="-17" type="line"/>
			<point x="1040" y="1"/>
			<point x="970" y="5"/>
			<point x="870" y="1" type="curve"/>
			<point x="817" y="-2"/>
			<point x="694" y="-4"/>
			<point x="599" y="-4" type="curve"/>
			<point x="425" y="-4"/>
			<point x="309" y="-3"/>
			<point x="188" y="54" type="curve"/>
			<point x="89" y="99"/>
			<point x="30" y="150"/>
			<point x="30" y="188" type="curve"/>
			<point x="30" y="227"/>
			<point x="59" y="238"/>
			<point x="158" y="238" type="curve"/>
			<point x="237" y="237"/>
			<point x="274" y="230"/>
			<point x="327" y="205" type="curve"/>
			<point x="363" y="189"/>
			<point x="415" y="159"/>
			<point x="407" y="147" type="curve"/>
			<point x="397" y="133"/>
			<point x="379" y="141"/>
			<point x="283" y="144" type="curve"/>
			<point x="170" y="147"/>
			<point x="182" y="97"/>
			<point x="291" y="75" type="curve"/>
			<point x="353" y="62"/>
			<point x="386" y="63"/>
			<point x="546" y="79" type="curve"/>
			<point x="846" y="108"/>
			<point x="984" y="121"/>
			<point x="1129" y="52" type="curve"/>
			<point x="1185" y="25"/>
			<point x="1219" y="-4"/>
			<point x="1215" y="-16" type="curve"/>
			<point x="1212" y="-24"/>
			<point x="1210" y="-24"/>
		</contour>
		<contour>
			<point x="1382" y="-343" type="curve"/>
			<point x="1382" y="-343" type="line"/>
			<point x="1329" y="-334"/>
			<point x="1306" y="-334"/>
			<point x="1306" y="-321" type="curve"/>
			<point x="1306" y="-311"/>
			<point x="1330" y="-297"/>
			<point x="1342" y="-283" type="curve"/>
			<point x="1365" y="-257"/>
			<point x="1334" y="-224"/>
			<point x="1271" y="-202" type="curve"/>
			<point x="1209" y="-180"/>
			<point x="1094" y="-157"/>
			<point x="1015" y="-153" type="curve"/>
			<point x="969" y="-150"/>
			<point x="891" y="-145"/>
			<point x="884" y="-142" type="curve"/>
			<point x="877" y="-139"/>
			<point x="874" y="-134"/>
			<point x="877" y="-129" type="curve"/>
			<point x="885" y="-116"/>
			<point x="936" y="-106"/>
			<point x="1007" y="-103" type="curve"/>
			<point x="1101" y="-99"/>
			<point x="1207" y="-116"/>
			<point x="1323" y="-145" type="curve"/>
			<point x="1447" y="-175"/>
			<point x="1526" y="-221"/>
			<point x="1538" y="-282" type="curve"/>
			<point x="1543" y="-305"/>
			<point x="1539" y="-329"/>
			<point x="1524" y="-341" type="curve"/>
			<point x="1502" y="-359"/>
			<point x="1485" y="-361"/>
		</contour>
	</outline>
</glyph>
<glyph name="synech" format="2">
	<advance width="1713"/>
	<outline>
		<contour>
			<point x="569" y="-126" type="curve"/>
			<point x="569" y="-126" type="line"/>
			<point x="548" y="-120"/>
			<point x="515" y="-115"/>
			<point x="495" y="-111" type="curve"/>
			<point x="448" y="-102"/>
			<point x="450" y="-103"/>
			<point x="471" y="-80" type="curve"/>
			<point x="493" y="-55"/>
			<point x="501" y="-44"/>
			<point x="499" y="-27" type="curve"/>
			<point x="498" y="-14"/>
			<point x="492" y="0"/>
			<point x="482" y="10" type="curve"/>
			<point x="463" y="31"/>
			<point x="411" y="56"/>
			<point x="347" y="71" type="curve"/>
			<point x="334" y="74"/>
			<point x="318" y="80"/>
			<point x="309" y="82" type="curve"/>
			<point x="290" y="86"/>
			<point x="242" y="96"/>
			<point x="180" y="105" type="curve"/>
			<point x="151" y="110"/>
			<point x="119" y="115"/>
			<point x="104" y="118" type="curve"/>
			<point x="88" y="120"/>
			<point x="67" y="123"/>
			<point x="56" y="125" type="curve"/>
			<point x="45" y="126"/>
			<point x="34" y="127"/>
			<point x="33" y="128" type="curve"/>
			<point x="26" y="135"/>
			<point x="35" y="144"/>
			<point x="52" y="149" type="curve"/>
			<point x="80" y="160"/>
			<point x="125" y="164"/>
			<point x="206" y="164" type="curve"/>
			<point x="264" y="164"/>
			<point x="278" y="164"/>
			<point x="293" y="160" type="curve"/>
			<point x="378" y="146"/>
			<point x="494" y="113"/>
			<point x="546" y="86" type="curve"/>
			<point x="636" y="42"/>
			<point x="681" y="-10"/>
			<point x="681" y="-71" type="curve"/>
			<point x="681" y="-92"/>
			<point x="676" y="-106"/>
			<point x="667" y="-116" type="curve"/>
			<point x="656" y="-130"/>
			<point x="649" y="-133"/>
			<point x="626" y="-133" type="curve"/>
			<point x="610" y="-134"/>
			<point x="602" y="-132"/>
		</contour>
		<contour>
			<point x="1633" y="-160" type="curve"/>
			<point x="1633" y="-160" type="line"/>
			<point x="1596" y="-157"/>
			<point x="1553" y="-152"/>
			<point x="1533" y="-149" type="curve"/>
			<point x="1496" y="-143"/>
			<point x="1482" y="-137"/>
			<point x="1482" y="-128" type="curve"/>
			<point x="1482" y="-108"/>
			<point x="1469" y="-77"/>
			<point x="1452" y="-56" type="curve"/>
			<point x="1431" y="-29"/>
			<point x="1414" y="-18"/>
			<point x="1353" y="11" type="curve"/>
			<point x="1257" y="56"/>
			<point x="1156" y="80"/>
			<point x="1060" y="80" type="curve"/>
			<point x="1005" y="80"/>
			<point x="952" y="69"/>
			<point x="929" y="54" type="curve"/>
			<point x="918" y="46"/>
			<point x="905" y="31"/>
			<point x="901" y="20" type="curve"/>
			<point x="898" y="11"/>
			<point x="898" y="-8"/>
			<point x="901" y="-15" type="curve"/>
			<point x="908" y="-29"/>
			<point x="933" y="-51"/>
			<point x="967" y="-73" type="curve"/>
			<point x="977" y="-79"/>
			<point x="982" y="-84"/>
			<point x="981" y="-85" type="curve"/>
			<point x="980" y="-86"/>
			<point x="963" y="-87"/>
			<point x="940" y="-86" type="curve"/>
			<point x="904" y="-85"/>
			<point x="899" y="-85"/>
			<point x="870" y="-79" type="curve"/>
			<point x="834" y="-71"/>
			<point x="809" y="-65"/>
			<point x="797" y="-60" type="curve"/>
			<point x="784" y="-54"/>
			<point x="753" y="-26"/>
			<point x="743" y="-11" type="curve"/>
			<point x="732" y="6"/>
			<point x="729" y="19"/>
			<point x="729" y="46" type="curve"/>
			<point x="729" y="67"/>
			<point x="729" y="69"/>
			<point x="734" y="79" type="curve"/>
			<point x="739" y="91"/>
			<point x="753" y="105"/>
			<point x="766" y="112" type="curve"/>
			<point x="783" y="122"/>
			<point x="803" y="129"/>
			<point x="842" y="137" type="curve"/>
			<point x="867" y="143" type="line"/>
			<point x="939" y="143" type="line"/>
			<point x="1018" y="143"/>
			<point x="1043" y="141"/>
			<point x="1106" y="132" type="curve"/>
			<point x="1188" y="120"/>
			<point x="1296" y="96"/>
			<point x="1341" y="81" type="curve"/>
			<point x="1400" y="60"/>
			<point x="1452" y="37"/>
			<point x="1481" y="18" type="curve"/>
			<point x="1490" y="12"/>
			<point x="1509" y="0"/>
			<point x="1523" y="-8" type="curve"/>
			<point x="1585" y="-43"/>
			<point x="1624" y="-70"/>
			<point x="1653" y="-100" type="curve"/>
			<point x="1689" y="-135"/>
			<point x="1692" y="-154"/>
			<point x="1664" y="-160" type="curve"/>
			<point x="1660" y="-161"/>
			<point x="1655" y="-162"/>
			<point x="1654" y="-162" type="curve"/>
			<point x="1653" y="-161"/>
			<point x="1644" y="-161"/>
		</contour>
	</outline>
</glyph>
<glyph name="test" format="2">
	<advance width="1158"/>
	<outline>
		<contour>
			<point x="1128" y="207" type="move"/>
			<point x="1118" y="217"/>
			<point x="1117" y="219"/>
			<point x="1127" y="234" type="curve"/>
		</contour>
		<contour>
			<point x="620" y="-226" type="curve"/>
			<point x="620" y="-226" type="line"/>
			<point x="489" y="-207"/>
			<point x="432" y="-178"/>
			<point x="422" y="-127" type="curve"/>
			<point x="419" y="-111"/>
			<point x="419" y="-109"/>
			<point x="428" y="-109" type="curve"/>
			<point x="434" y="-109"/>
			<point x="455" y="-118"/>
			<point x="475" y="-125" type="curve"/>
			<point x="547" y="-156"/>
			<point x="601" y="-173"/>
			<point x="635" y="-173" type="curve"/>
			<point x="669" y="-173" type="line"/>
			<point x="643" y="-151" type="line"/>
			<point x="629" y="-138"/>
			<point x="618" y="-124"/>
			<point x="618" y="-121" type="curve"/>
			<point x="618" y="-118"/>
			<point x="623" y="-110"/>
			<point x="632" y="-106" type="curve"/>
			<point x="642" y="-99"/>
			<point x="655" y="-98"/>
			<point x="699" y="-100" type="curve"/>
			<point x="766" y="-101"/>
			<point x="791" y="-112"/>
			<point x="809" y="-144" type="curve"/>
			<point x="818" y="-163"/>
			<point x="818" y="-165"/>
			<point x="811" y="-186" type="curve"/>
			<point x="800" y="-223"/>
			<point x="783" y="-230"/>
			<point x="721" y="-232" type="curve"/>
			<point x="693" y="-232"/>
			<point x="647" y="-229"/>
		</contour>
		<contour>
			<point x="1049" y="-28" type="curve"/>
			<point x="1049" y="-28" type="line"/>
			<point x="977" y="0"/>
			<point x="835" y="13"/>
			<point x="644" y="7" type="curve"/>
			<point x="309" y="-2"/>
			<point x="199" y="8"/>
			<point x="99" y="58" type="curve"/>
			<point x="47" y="85"/>
			<point x="14" y="134"/>
			<point x="38" y="155" type="curve"/>
			<point x="45" y="160"/>
			<point x="52" y="160"/>
			<point x="75" y="150" type="curve"/>
			<point x="154" y="121"/>
			<point x="169" y="121"/>
			<point x="529" y="121" type="curve"/>
			<point x="888" y="121"/>
			<point x="873" y="121"/>
			<point x="952" y="90" type="curve"/>
			<point x="988" y="78"/>
			<point x="1036" y="48"/>
			<point x="1068" y="23" type="curve"/>
			<point x="1094" y="2"/>
			<point x="1101" y="-22"/>
			<point x="1087" y="-31" type="curve"/>
			<point x="1077" y="-41"/>
			<point x="1079" y="-41"/>
		</contour>
		<contour>
			<point x="562" y="184" type="curve"/>
			<point x="562" y="184" type="line"/>
			<point x="520" y="195"/>
			<point x="504" y="217"/>
			<point x="487" y="284" type="curve"/>
			<point x="470" y="343"/>
			<point x="462" y="359"/>
			<point x="442" y="365" type="curve"/>
			<point x="422" y="373"/>
			<point x="422" y="381"/>
			<point x="441" y="391" type="curve"/>
			<point x="455" y="399"/>
			<point x="530" y="397"/>
			<point x="556" y="386" type="curve"/>
			<point x="578" y="379"/>
			<point x="602" y="336"/>
			<point x="618" y="276" type="curve"/>
			<point x="632" y="226"/>
			<point x="640" y="211"/>
			<point x="655" y="207" type="curve"/>
			<point x="669" y="202"/>
			<point x="671" y="189"/>
			<point x="656" y="183" type="curve"/>
			<point x="642" y="173"/>
			<point x="594" y="175"/>
		</contour>
		<contour>
			<point x="740" y="245" type="curve"/>
			<point x="740" y="245" type="line"/>
			<point x="735" y="257"/>
			<point x="736" y="260"/>
			<point x="749" y="271" type="curve"/>
			<point x="758" y="278"/>
			<point x="784" y="292"/>
			<point x="809" y="302" type="curve"/>
			<point x="835" y="314"/>
			<point x="852" y="323"/>
			<point x="850" y="330" type="curve"/>
			<point x="840" y="364"/>
			<point x="853" y="407"/>
			<point x="882" y="422" type="curve"/>
			<point x="921" y="443"/>
			<point x="1018" y="436"/>
			<point x="1046" y="413" type="curve"/>
			<point x="1057" y="402"/>
			<point x="1061" y="395"/>
			<point x="1061" y="373" type="curve"/>
			<point x="1062" y="316"/>
			<point x="1026" y="289"/>
			<point x="953" y="288" type="curve"/>
			<point x="930" y="288"/>
			<point x="900" y="289"/>
			<point x="887" y="292" type="curve"/>
			<point x="864" y="296"/>
			<point x="862" y="295"/>
			<point x="820" y="264" type="curve"/>
			<point x="770" y="226"/>
			<point x="750" y="222"/>
		</contour>
		<contour>
			<point x="960" y="331" type="curve"/>
			<point x="960" y="331" type="line"/>
			<point x="980" y="333"/>
			<point x="1000" y="355"/>
			<point x="1000" y="372" type="curve"/>
			<point x="1000" y="397"/>
			<point x="930" y="407"/>
			<point x="909" y="386" type="curve"/>
			<point x="894" y="373"/>
			<point x="890" y="351"/>
			<point x="898" y="341" type="curve"/>
			<point x="908" y="331"/>
			<point x="925" y="321"/>
			<point x="936" y="324" type="curve"/>
			<point x="939" y="326"/>
			<point x="952" y="329"/>
		</contour>
	</outline>
</glyph>
<glyph name="yporroi" format="2">
	<advance width="373"/>
	<outline>
		<contour>
			<point x="182" y="-85" type="curve"/>
			<point x="182" y="-85" type="line"/>
			<point x="149" y="-80"/>
			<point x="116" y="-71"/>
			<point x="89" y="-58" type="curve"/>
			<point x="71" y="-48"/>
			<point x="48" y="-34"/>
			<point x="43" y="-28" type="curve"/>
			<point x="39" y="-24"/>
			<point x="39" y="-24"/>
			<point x="43" y="-20" type="curve"/>
			<point x="46" y="-19"/>
			<point x="49" y="-17"/>
			<point x="52" y="-16" type="curve"/>
			<point x="54" y="-15"/>
			<point x="79" y="-17"/>
			<point x="105" y="-19" type="curve"/>
			<point x="133" y="-22"/>
			<point x="158" y="-24"/>
			<point x="161" y="-24" type="curve"/>
			<point x="167" y="-22"/>
			<point x="175" y="-14"/>
			<point x="175" y="-9" type="curve"/>
			<point x="175" y="-7"/>
			<point x="168" y="10"/>
			<point x="159" y="30" type="curve"/>
			<point x="137" y="79"/>
			<point x="130" y="99"/>
			<point x="130" y="111" type="curve"/>
			<point x="130" y="123"/>
			<point x="134" y="133"/>
			<point x="145" y="142" type="curve"/>
			<point x="160" y="154"/>
			<point x="164" y="155"/>
			<point x="225" y="156" type="curve"/>
			<point x="297" y="157"/>
			<point x="310" y="154"/>
			<point x="319" y="141" type="curve"/>
			<point x="325" y="132"/>
			<point x="325" y="121"/>
			<point x="318" y="112" type="curve"/>
			<point x="315" y="106"/>
			<point x="313" y="106"/>
			<point x="306" y="106" type="curve"/>
			<point x="302" y="106"/>
			<point x="290" y="108"/>
			<point x="279" y="109" type="curve"/>
			<point x="270" y="112"/>
			<point x="261" y="115"/>
			<point x="260" y="114" type="curve"/>
			<point x="257" y="111"/>
			<point x="265" y="91"/>
			<point x="286" y="49" type="curve"/>
			<point x="309" y="3" type="line"/>
			<point x="309" y="-19" type="line"/>
			<point x="311" y="-39"/>
			<point x="310" y="-40"/>
			<point x="306" y="-49" type="curve"/>
			<point x="291" y="-78"/>
			<point x="246" y="-92"/>
		</contour>
	</outline>
</glyph>
